<?xml version="1.0" standalone="no"?>
<!DOCTYPE svg PUBLIC "-//W3C//DTD SVG 1.1//EN" "http://www.w3.org/Graphics/SVG/1.1/DTD/svg11.dtd" >
<svg xmlns="http://www.w3.org/2000/svg" xmlns:xlink="http://www.w3.org/1999/xlink" version="1.1">
<metadata></metadata>
<defs>
<font id="canterburyregular" horiz-adv-x="1024" >
<font-face units-per-em="2048" ascent="1638" descent="-410" />
<missing-glyph horiz-adv-x="716" />
<glyph horiz-adv-x="0" />
<glyph horiz-adv-x="682" />
<glyph d="M223 1391q10 -117 89 -181.5t198 -64.5q264 0 291 248l-94 -2q-41 -141 -197 -142q-158 0 -191 144z" />
<glyph d="M385 1294l129 -129l127 129l-127 129z" />
<glyph d="M322 1288q0 -158 190 -215v-2q55 0 123 90q68 88 67 150q0 156 -190 215l-8 -4q-182 -92 -182 -234zM397 1329q0 10 4 27q12 51 45 84q59 0 119 -59.5t60 -120.5q-1 -62 -52 -101v-2q-27 6 -34 12q-141 57 -142 160z" />
<glyph unicode="&#xa;" d="M799 -207q8 -70 67 -112q51 -39 127 -39q68 0 129 20l-2 84q-43 -14 -104 -14q-111 8 -111 102q0 82 107 164h4l2 2h-103q-117 -92 -116 -207z" />
<glyph d="M330 1122h114l199 279h-174zM627 1122h114l199 279h-174z" />
<glyph d="M197 1317l340 -197l292 305l-45 23l-159 -162l-299 162z" />
<glyph unicode="&#xd;" horiz-adv-x="499" d="M72 879l71 -62v-524q0 -111 -65 -133v-21q45 -27 93 -67.5t101 -96.5l213 166l-24 35l-62 -51l-57 51v633l70 63l-170 140z" />
<glyph horiz-adv-x="231" d="M-244 20l64 -32l657 1278l-63 32z" />
<glyph horiz-adv-x="966" d="M66 862h79v-555v-20q-2 -104 -65 -140v-24q129 -41 246 -148l215 172l-29 27l-63 -51q-10 10 -22.5 20.5t-27.5 20.5l-53 39v659h135v109h-135v252l172 -45l33 159l-199 47q-55 -47 -107 -87t-100 -72v-254h-79v-109zM537 879l71 -62v-524q0 -111 -65 -133v-21 q45 -27 93 -67.5t101 -96.5l213 166l-24 35l-62 -51l-57 51v633l70 63l-170 140zM725 1188l49 -4l170 231l-170 6z" />
<glyph horiz-adv-x="978" d="M66 862h79v-555v-20q-2 -104 -65 -140v-24q129 -41 246 -148l215 172l-29 27l-63 -51q-10 10 -22.5 20.5t-27.5 20.5l-53 39v659h135v109h-135v252l172 -45l31 147q63 -33 82 -94q14 -37 14 -129v-805q0 -113 -70 -145v-33q143 -37 248 -144l195 158l-29 33l-43 -33 l-100 70v903q0 86 8 119q16 63 59 100q14 10 23.5 19.5l15.5 15.5l-10 31q-143 -37 -227 -131q-61 57 -160 100l-6 -23l-197 47q-55 -47 -107 -87t-100 -72v-254h-79v-109z" />
<glyph horiz-adv-x="1230" d="M16 1167q0 -29 17 -82l37 13q0 4 -2 6v6q-4 16 -5 25q0 41 26 70.5t65 29.5t86 -18q4 0 6 -3h6q63 -23 98 -22q49 0 174 29l-18 -19q-143 -143 -144 -338q0 -12 2.5 -36.5t2.5 -36.5q-18 6 -27 6q-23 6 -53 6q-86 -2 -162 -94l25 -21q41 29 88 29q145 0 151 -185 q-47 35 -100 35q-57 0 -113 -61l21 -25q27 12 55 13q66 0 102 -64l-258 -78l31 -102l248 76q-14 -125 -195 -258q-25 -18 -44 -31.5t-36 -22.5l25 -39q266 145 522 146q199 0 391 -146l230 213l-35 37l-92 -86q-152 129 -340 129q-23 0 -46.5 -1t-45.5 -3q-102 -12 -185 -41 q72 59 128.5 112.5t95.5 104.5l288 88l-30 103l-177 -53q33 80 33 196q0 29 -3 74t-11 104q-12 119 -12 181q0 174 217 200l-23 45q-174 0 -274 -82q-106 -88 -107 -260q0 -57 13 -170q8 -57 11 -99t3 -71q0 -88 -23 -174l-106 -33q20 74 20 168q0 35 -3 84.5t-11 115 t-11 115.5t-3 83q0 90 39 153q31 53 106 117q10 8 17.5 14.5t11.5 10.5l-19 28q-111 -55 -184 -55q-49 0 -141 31q-90 31 -140 30q-86 -4 -149.5 -67.5t-63.5 -149.5zM395 190q29 39 56.5 82t50.5 93l94 28q-72 -117 -201 -203z" />
<glyph horiz-adv-x="464" d="M-31 498l31 -103l131 41v-139q0 -113 -70 -145v-33q143 -37 248 -144l195 158l-29 33l-43 -33l-100 70v295l160 49l-31 102l-129 -39v496q0 86 8 119q16 63 59 100q14 10 23.5 19.5l15.5 15.5l-10 31q-143 -37 -227 -131q-61 57 -160 100l-10 -33q63 -33 86 -94 q14 -37 14 -131v-553z" />
<glyph horiz-adv-x="1040" d="M-18 12l26 -37q217 96 406 97q221 0 420 -97l206 261l-34 32l-101 -125q-150 76 -305 76q-156 0 -444 -115q137 129 238.5 248t170.5 232h318l30 69l-305 -2q23 35 37 62.5t25 46.5h291l32 74l-291 -3q160 315 312 533l-27 27q-170 -90 -379 -91q-162 0 -350 89 l-227 -267l37 -30l114 129q125 -55 258 -56q168 0 439 115q-117 -117 -215.5 -228.5t-180.5 -217.5h-295l-32 -74l282 -2q-18 -35 -32.5 -61.5t-24.5 -43.5h-270l-33 -69l266 -2q-41 -76 -80 -150t-80 -149q-102 -172 -202 -271zM244 1649l340 -195l293 303l-46 25 l-159 -162l-299 162z" />
<glyph horiz-adv-x="567" d="M-51 1329l338 -194l293 303l-45 24l-160 -162l-299 162zM0 823l27 -32l100 71l184 -149l-284 -301l24 -25q78 41 131 41q68 0 107 -47t39 -117q0 -96 -121 -211q-10 -4 -12 -12q-109 -96 -109 -180q0 -59 46 -99.5t106 -40.5h10q6 0 8 3q49 6 49 45q0 18 -29 24h-8 q-12 0 -33.5 -6t-33.5 -6q-61 0 -68 74v6q4 41 35 69q45 41 155.5 104.5t155.5 110.5q68 74 68 181q0 57 -21.5 104t-60.5 80t-90 51.5t-109 18.5q-6 -2 -14 -2q-8 -2 -14 0l260 274l-17 20q-4 -2 -12 -2q-6 -4 -12 0l-2 -2q-29 0 -95 47q-53 37 -110 95z" />
<glyph unicode=" "  horiz-adv-x="716" />
<glyph unicode="&#x09;" horiz-adv-x="716" />
<glyph unicode="&#xa0;" horiz-adv-x="716" />
<glyph unicode="!" horiz-adv-x="585" d="M123 1102q125 -317 143 -770l51 -2q4 221 40 410.5t106 355.5l-174 174l-166 -166v-2zM143 121l146 -146l145 146l-145 145z" />
<glyph unicode="&#x22;" horiz-adv-x="684" d="M141 1366l47 -549h54l45 549h-146zM430 1366l47 -549h53l45 549h-145z" />
<glyph unicode="#" horiz-adv-x="1269" d="M137 461h242l-55 -387h108l55 387h228l-56 -387h109l55 387h250l14 104h-249l30 217h250l15 105h-250l49 356h-109l-49 -356h-227l49 356h-109l-49 -356h-241l-15 -105h242l-31 -217h-241zM502 565l30 217h228l-31 -217h-227z" />
<glyph unicode="$" horiz-adv-x="1007" d="M20 27l41 -50q96 82 254 82h25q10 -2 16 -2h11l53 -8q25 -4 49 -12q0 -12 2 -23v-20q2 -8 2 -25v-22q0 -29 -1 -55.5t-3 -53.5l66 41l-9 139q31 -12 53.5 -22t38.5 -19l37 19q111 57 193 156q92 113 92 225q0 199 -287 334q-41 18 -72.5 31.5t-54.5 23.5v307 q20 -4 34.5 -8t25.5 -8q51 -20 125 -62q8 -6 16 -6l104 174q-29 14 -49 24.5t-34 18.5q-178 70 -222 80l9 187l-66 -37v-152q-86 -18 -219 -117q-86 -86 -111 -129q-41 -72 -41 -168q0 -117 80 -174q49 -39 117 -71q31 -14 61.5 -28.5t61.5 -31.5q4 -2 6 -2q4 0 8 -2 q27 -14 37 -14v-293q-10 0 -16 2q-12 2 -25 2h-25q-238 0 -383 -231zM233 987q0 45 35 70q49 37 119 37h21q12 0 22 -2l39 -5v-301q-16 6 -37.5 14.5t-44.5 18.5q-154 70 -154 168zM526 248v278q274 -84 275 -252q0 -57 -37 -120q-95 55 -238 94z" />
<glyph unicode="%" horiz-adv-x="1058" d="M68 958q0 -221 231 -311v-2q100 53 157.5 151.5t57.5 215.5q0 100 -65.5 182t-163.5 115q-217 -143 -217 -351zM164 1030q0 10 2 21v20q16 72 43 115q211 -70 211 -279q0 -84 -45 -143v-2q-88 31 -148 102q-63 76 -63 166zM168 20l63 -32l660 1278l-64 32zM545 287 q0 -220 231 -312q100 49 157.5 148.5t57.5 216.5q0 100 -66.5 182t-164.5 115q-215 -152 -215 -350zM641 356q0 84 43 158q211 -70 211 -278q0 -89 -43 -144v-2q-92 31 -151.5 102.5t-59.5 163.5z" />
<glyph unicode="&#x26;" horiz-adv-x="1480" d="M41 403l291 -428l418 291q100 -166 147 -209q88 -82 242 -82q203 0 282 195l-32 16q-84 -72 -189 -65q-94 6 -156 76q-35 39 -63.5 79.5t-50.5 85.5l-12 23l172 119q78 -76 165 -76q115 0 185 100l-19 23q-23 -6 -55 -6q-78 8 -166 92l-305 -213l-197 348l41 25 q127 76 183 131q90 94 90 200q0 156 -183 265l-366 -176q-35 -16 -57.5 -28.5t-32.5 -21.5q-49 -37 -49 -84q0 -55 57 -155l125 -221zM227 473l299 195l203 -361l-262 -184zM518 1124q0 68 96 105q33 12 60 12q78 0 126 -58.5t52 -138.5v-12q-6 -106 -150 -201q-8 -4 -15 -8 t-11 -6l-123 215q-4 4 -4 8q-31 45 -31 84z" />
<glyph unicode="'" horiz-adv-x="436" d="M141 1366l47 -549h54l45 549h-146z" />
<glyph unicode="(" horiz-adv-x="636" d="M68 465q0 -242 100 -445q100 -207 293 -344l125 158q-59 51 -111 105q-127 123 -186 346q-41 154 -41 276v33q0 393 260 702q25 29 55.5 63t65.5 73l-23 26q-244 -188 -385 -436q-154 -270 -153 -557z" />
<glyph unicode=")" horiz-adv-x="636" d="M27 -297l22 -27q242 180 387 435q150 266 150 559q0 242 -100 447.5t-293 342.5l-123 -160l110 -104q29 -31 53.5 -61.5t40.5 -61.5q131 -229 132 -536q0 -215 -72 -394q-63 -164 -213 -338q-31 -35 -54.5 -60.5t-39.5 -41.5z" />
<glyph unicode="*" horiz-adv-x="776" d="M82 1163l41 -100q10 0 27 4l38 4q10 2 19 2h20q35 0 62.5 -3t50.5 -7q-72 -90 -162 -135l35 -109l104 6q20 109 72 195q43 -76 62 -193l110 -8l35 99q-31 29 -46 41t-22 16q-29 23 -51 43t-39 43q23 4 49.5 7t57.5 3h26t27 -2l51 -4l45 104l-90 62q-20 -16 -40.5 -31.5 t-41.5 -32.5q-45 -37 -102 -49q2 88 55 209l-86 66l-90 -68q45 -96 61 -203q-88 29 -194 111z" />
<glyph unicode="+" d="M37 657h418v-401h112v401h420v109h-420v399h-112v-399h-418v-109z" />
<glyph unicode="," horiz-adv-x="477" d="M94 129q14 -10 30.5 -27.5t31 -38t22.5 -41t8 -34.5q0 -53 -77 -121q-8 -6 -11 -9l-4 -3l17 -43q217 77 274 325l-147 144z" />
<glyph unicode="-" horiz-adv-x="468" d="M20 436l353 -2q27 76 73 166h-352v-2q-39 -98 -74 -162z" />
<glyph unicode="." horiz-adv-x="477" d="M90 121l148 -146l147 146l-147 147z" />
<glyph unicode="/" horiz-adv-x="1001" d="M0 -262l88 -47l899 1745l-86 45z" />
<glyph unicode="0" horiz-adv-x="1005" d="M55 604q0 -217 123 -385q115 -160 324 -244q199 109 317 291q129 193 129 410q0 223 -117.5 385t-328.5 248q-446 -299 -447 -705zM205 735q0 14 2 25v22q14 180 131 336q211 -51 336 -217q123 -164 123 -383q-1 -211 -140 -356v-2q-203 76 -323 215q-129 154 -129 360z " />
<glyph unicode="1" horiz-adv-x="1005" d="M213 1120l31 -37l63 47q16 -10 25 -20q55 -47 55 -176v-721l-70 -78l230 -160l244 201l-33 37l-92 -74q-74 37 -74 160v696q0 94 -10 142q-18 66 -74 118q-49 39 -74 56z" />
<glyph unicode="2" horiz-adv-x="1005" d="M45 -8l25 -17q184 78 356 78q162 0 328 -78l174 195q-215 72 -377 72t-371 -82q29 33 64 65.5t80 67.5q23 16 62.5 45t98.5 68q209 139 283 223q129 141 129 323v43v21q-2 10 -2 22l-440 273l-377 -307l137 -136l373 301q88 -88 88 -208q0 -139 -90 -277 q-57 -86 -199 -221l-16 -17q-78 -78 -126 -129t-71 -77q-102 -127 -129 -248z" />
<glyph unicode="3" horiz-adv-x="1005" d="M61 285l371 -310q59 18 105.5 31.5t76.5 24.5q328 119 328 334q0 131 -98 221q-84 76 -221 110q268 98 268 385v15v6q-2 4 -2 8l-447 201l-292 -219l120 -131l195 143l61 49q39 27 72 27q49 0 55 -68q2 -2 2 -10v-12q0 -184 -94 -271q-86 -78 -276 -92v-68q27 2 52 3.5 t52 1.5q154 0 238 -105q78 -96 78 -252v-24q-2 -10 -3 -17v-10q-16 -127 -92 -160l-401 330z" />
<glyph unicode="4" horiz-adv-x="1005" d="M51 594l41 -191h440v-188l-69 -94l219 -146l240 189l-27 33q-6 -4 -11 -8.5t-10 -6.5q-29 -25 -53 -24q-18 0 -33 8q-41 14 -57 33v204h225l-34 177h-191v450q0 125 -22 174q-27 66 -134 107zM94 580l385 526q51 -31 53 -125v-14v-387h-438z" />
<glyph unicode="5" horiz-adv-x="1005" d="M82 193l377 -218q223 72 329 179q137 131 138 338q0 147 -88 253q-72 86 -222 166l-389 -258l76 434h479l78 197h-569l-131 -733l268 176q328 -94 328 -377q0 -152 -115 -237l-420 239z" />
<glyph unicode="6" horiz-adv-x="1005" d="M68 543q0 -209 116.5 -356.5t319.5 -211.5q199 123 291 220q143 150 143 325q0 221 -256 336l-426 -258q0 291 152 547l337 -182l142 165l-332 181q-487 -358 -487 -766zM262 549l246 147q121 -59 180 -116q88 -82 88 -193q0 -139 -108 -248q-117 0 -254 137 q-136 140 -152 273z" />
<glyph unicode="7" horiz-adv-x="1005" d="M66 926l51 -2q57 111 143 143q61 27 205 25l287 -2q-125 -141 -219.5 -268.5t-157.5 -243.5q-168 -305 -174 -603l272 95q12 682 463 1159l4 55h-696z" />
<glyph unicode="8" horiz-adv-x="1005" d="M78 281q0 -147 141 -234q121 -72 279 -72h20q2 2 10 2h9q178 115 260 207q131 143 131 295q0 104 -65.5 185t-166.5 116q180 137 181 273q0 190 -263 243q-35 8 -68.5 11.5t-62.5 3.5h-26q-6 -2 -15 -2h-24h-6q-4 -2 -9 -2l-49 -50q-16 -18 -29.5 -31.5t-21.5 -23.5 q-174 -193 -199 -325q-6 -23 -6 -58q0 -158 168 -215q-188 -164 -188 -323zM221 420q5 78 103 172v-2q92 0 215 -25q129 -27 206 -61q88 -45 89 -144q0 -78 -56 -116q-82 -57 -196 -58q-29 0 -57.5 3.5t-57.5 7.5q-106 18 -168 69q-80 61 -78 154zM236 967q0 67 55 147v-2 h57q193 0 288 -34t95 -126q0 -84 -104 -157q-115 12 -172 18q-219 29 -219 154z" />
<glyph unicode="9" horiz-adv-x="1005" d="M74 782q0 -238 250 -360l419 256q0 -12 2.5 -36t2.5 -36q0 -238 -146 -454l-330 178l-139 -172l348 -183q453 332 453 746q0 410 -436 588q-94 -57 -165 -109.5t-118 -103.5q-141 -145 -141 -314zM233 913q0 125 97 215q147 -27 262 -139q112 -107 141 -254l-237 -147 q-41 27 -80 53.5t-80 52.5q-102 80 -103 219z" />
<glyph unicode=":" horiz-adv-x="477" d="M90 121l148 -146l147 146l-147 147zM90 727l148 -147l147 147l-147 147z" />
<glyph unicode=";" horiz-adv-x="477" d="M94 129q14 -10 30.5 -27.5t31 -38t22.5 -41t8 -34.5q0 -53 -77 -121q-8 -6 -11 -9l-4 -3l17 -43q217 77 274 325l-145 144zM94 727l146 -147l147 147l-147 147z" />
<glyph unicode="&#x3c;" d="M68 596l886 -438v217l-653 313l653 313v218l-886 -437v-186z" />
<glyph unicode="=" d="M37 510h950v106h-950v-106zM37 807h950v106h-950v-106z" />
<glyph unicode="&#x3e;" d="M70 158l886 438v184l-886 439l2 -215l651 -316l-653 -313v-217z" />
<glyph unicode="?" horiz-adv-x="653" d="M68 1022l22 -18q76 70 135 69q61 0 108.5 -44t47.5 -105q0 -57 -21 -119q-18 -53 -36.5 -105.5t-36.5 -105.5q-35 -121 -35 -225v-17q0 -4 2 -8v-6l39 -2q16 215 145 369q102 125 103 124q47 72 47 156q0 129 -94 203q-82 63 -220 76q-53 2 -61 6zM125 119l143 -144 l146 144l-146 145z" />
<glyph unicode="@" horiz-adv-x="1400" d="M49 680q0 -287 192.5 -491.5t473.5 -204.5q346 0 547 262q45 57 59 100l-88 -6q-8 -14 -21.5 -32.5t-31.5 -41.5q-172 -207 -459 -207q-233 0 -391 150q-158 152 -191 383q-6 45 -6 92q0 236 178 412q182 176 418 176q231 0 387 -139q154 -139 154 -371q0 -94 -49 -176 q-80 -133 -183 -203q-43 -29 -63 -31q-39 2 -39 70v4v14q0 8 2 13v299q0 90 8 125q8 53 51 118l-22 13q-37 -37 -74 -37q-86 0 -201 63l-12 6l-8 4q-31 -31 -68 -45q-61 -25 -131 -24h-16q-6 0 -19 4l142 -254q-156 -174 -154 -305q4 -111 125 -205l217 174q16 -115 96 -176 q53 20 102.5 45t96.5 57q277 187 277 459v-2q0 252 -183 416q-176 160 -430 160q-276 0 -481 -197t-205 -471zM500 948l276 -90v-196l-155 67zM569 522q0 90 37 180l170 -73v-197l-104 -88q-102 92 -103 178z" />
<glyph unicode="A" horiz-adv-x="1288" d="M55 918q0 -262 260 -424l-147 -218q-16 -27 -34.5 -51t-35.5 -51q-37 -61 -37 -117q0 -6 2 -10v-10q14 -63 68 -64q49 0 53 41q0 10 -6 25.5t-14 31t-15.5 30t-7.5 20.5q0 16 14.5 30.5t30.5 14.5q37 0 86 -19q145 -59 314 -180l344 269q2 -43 6 -77t10 -61 q16 -74 117 -131l231 195l-32 35q-2 -2 -8.5 -7.5t-8.5 -7.5q-36 -30 -58 -30h-1q-27 0 -39 28q-20 43 -21 131v8v9l-32 692q-2 23 -2 33t0 8v35q0 74 18 123q20 57 107 114l32 23l-22 33q-59 -27 -112.5 -66t-100.5 -90q-16 12 -28.5 21.5t-22.5 15.5q-199 127 -398 127h-8 h-10q-193 -8 -342.5 -149.5t-149.5 -329.5zM133 895q0 133 105 223q131 109 280 109q150 0 264 -62l-57 -86q-94 23 -170 23q-150 0 -225 -191l37 -18q63 82 139 82q49 0 117 -37l-279 -401q-211 150 -211 358zM260 338l80 115h580l8 -160l-199 -154zM440 598l381 541 q41 -27 68 -54l22 -487h-471z" />
<glyph unicode="B" horiz-adv-x="1521" d="M14 1106l47 -2q14 123 113 123q10 0 20.5 -1t20.5 -3l41 -9q16 -4 20 -4q57 -18 105 -18q80 0 190 35q-131 -82 -186 -168q-61 -96 -68 -242q-77 12 -105 12h-7q-150 -8 -182 -200v-2v-2l38 -11q37 84 121 84q150 0 150 -192q-213 -18 -221 -209l36 -2q29 90 99 90 q37 0 63.5 -25.5t26.5 -62.5q0 -90 -133 -207q-68 -59 -92 -90q-43 -55 -43 -117v-14q8 -74 69 -74q55 0 56 60q0 16 -17.5 44.5t-17.5 47.5q0 78 133 119q85 26 188 26h8q182 0 375 -119q213 184 555 238v407q0 66 37 89v28l-248 119l219 162l-278 377v-2 q-145 -35 -307 -123q-129 -72 -172 -166q-33 -74 -33 -242v-299q0 -80 -13.5 -139.5t-44 -104.5t-81 -79.5t-123.5 -61.5q92 92 119 158q28 72 28 193v8v356q0 166 68 262q59 86 219 164q45 20 49 24l-33 45q-115 -55 -219 -55q-25 0 -65.5 6t-98.5 21q-105 24 -162 24h-4 q-117 0 -184 -82q-59 -72 -76 -194zM543 211q31 16 58.5 31.5t49.5 31.5q111 74 150 162q37 82 37 219v373q0 109 30 162q35 61 131 96l252 -344l-290 -217v246h-46v-766q-96 31 -184 31q-76 0 -188 -25zM961 193v161q72 23 124 23q55 0 129 -21v-141q-55 -16 -102 -37h-2 q-6 -6 -66 -26l-40 20q-10 4 -21.5 10.5t-21.5 10.5zM961 406v141q74 -20 124 -21q55 0 129 23v-146q-59 18 -129 19q-23 0 -53 -4t-71 -12zM961 594v78l73 55l180 -90v-41q-55 -27 -127 -27q-65 0 -126 25z" />
<glyph unicode="C" horiz-adv-x="1263" d="M47 625q0 -260 178 -453q178 -190 437 -190q371 0 602 362l-23 27v-2q-223 -185 -489 -185h-9v1024q160 -78 301 -100l187 174q-223 0 -434 111l-400 -340v-437q0 -86 -8 -116q-14 -57 -67 -94q-111 162 -111 360q0 154 82 278q66 100 201 218l-19 20 q-100 -51 -177 -117.5t-134 -150.5q-117 -176 -117 -389zM348 367q29 23 52.5 44t43.5 38q98 80 129 163q25 68 25 215v316l100 90v-1049q-207 23 -350 183z" />
<glyph unicode="D" horiz-adv-x="1509" d="M14 459l29 -23q49 49 98 49q57 0 97.5 -45t46.5 -104v-17q0 -86 -56 -149q-86 -98 -186 -156l27 -34q72 45 137 92t125 98q39 33 66.5 61.5t43.5 51.5q68 94 68 292v230q0 246 186 291q-65 -113 -65 -299v-6v-265q0 -145 -66 -241q-57 -86 -188 -168q-18 -10 -30.5 -17.5 t-16.5 -9.5l-203 -121l-31 -18l27 -39q244 133 520 133q225 0 471 -70l299 207v-2q0 131 -2 228.5t-6 162.5q-18 293 -82 441q-72 168 -213 227q-111 47 -315 47q-47 0 -115 -2t-160 -6q-182 -6 -272 -6q-145 0 -185 94l-26 -2q0 -182 104 -240q76 -41 271 -41q16 0 45.5 2 t42.5 2q14 2 35 3h51q-18 -10 -34.5 -20.5t-31.5 -20.5q-141 -96 -170 -199q-37 -133 -37 -264q-43 20 -92 20q-127 0 -207 -147zM547 197q133 111 133 358v233q0 211 76 312h4q2 0 4 2h16q0 -2 2 -2t4 2v-877q-137 -2 -239 -28zM831 227v162q78 51 156 64q6 2 14 2h13 q96 0 192 -70q6 -86 6 -229q-156 46 -381 71zM831 440v244q88 -57 175 -57q78 0 184 57q6 -59 10 -119.5t6 -122.5q-94 57 -194 58q-72 -1 -181 -60zM831 741v359q186 -14 263 -94q76 -76 92 -267q-90 -61 -176 -61q-91 0 -179 63z" />
<glyph unicode="E" horiz-adv-x="1298" d="M49 666q0 -281 187 -476q187 -194 459 -194h3q176 0 334 98q143 94 240 258l-15 17q-241 -176 -498 -176h-11v602l331 -11l109 189l-236 6l289 291l-12 28q-4 0 -6 -2h-9h-14q-96 0 -184 25q-129 35 -211 86l-402 -320v-475q0 -23 -1 -41t-3 -32q-10 -55 -71 -111 q-113 168 -113 385q0 264 293 471l-19 31q-217 -117 -319 -260q-121 -164 -121 -389zM354 395q162 137 168 144q76 84 76 209v417l107 88v-1058q-217 33 -351 200zM748 834v395q133 -78 290 -103z" />
<glyph unicode="F" horiz-adv-x="1275" d="M-94 -193l41 -12q25 49 30 55q23 29 54 29q47 0 108 -31q27 -14 51.5 -26t51.5 -27l301 133q227 98 305 183q72 78 72 237v481h202l58 144h-260v211q106 -47 172 -47q104 0 170 73q59 66 69 176l-31 5q-63 -100 -147 -101q-86 0 -205 86q-6 4 -11 8.5t-9 6.5 q-121 -199 -428 -250q-41 -8 -74 -8v-162q-156 -2 -229 -43q-84 -47 -146 -183q-2 -4 -2 -6t-2 -6l-6 -10l27 -25q70 80 163 107q70 20 195 24v-731v-24q-2 -41 -5 -65.5t-8 -40t-14.5 -26t-23.5 -18.5q-35 16 -68 34.5t-65 35.5q-74 33 -150 33q-68 0 -110.5 -51.5 t-67.5 -139.5zM459 -55q20 23 35.5 43t29.5 39q90 127 90 374v701q68 18 119 43v-807q0 -242 -274 -393z" />
<glyph unicode="G" horiz-adv-x="1417" d="M49 485q0 -217 160 -360q158 -143 377 -143q287 0 524 170q260 186 260 466q0 164 -115 267q-102 94 -272 112l309 246l-14 23q-51 -11 -96 -11h-8q-172 8 -412 136q-78 -63 -156 -125t-155 -123q-92 -74 -161 -144.5t-120 -138.5q-121 -162 -121 -375zM416 1044v-530 q0 -158 -66 -233q-110 167 -110 341q0 236 176 422zM381 244q49 39 86 66.5t61 45.5q16 14 26.5 23.5t18.5 17.5q43 43 43 154v151q39 25 69 42.5t50 27.5v-704q-215 12 -354 176zM616 772v453q154 -70 404 -133zM780 70v196q94 61 197 62q72 0 164 -45q-47 -96 -152 -156 q-98 -55 -209 -57zM780 326v188q119 -61 219 -61q104 0 209 61q-2 -47 -13 -95t-32 -95q-100 51 -188 51q-97 0 -195 -49zM780 569v217q74 27 140 27q106 0 185 -69.5t99 -176.5q-94 -69 -208 -69h-15q-105 1 -201 71z" />
<glyph unicode="H" horiz-adv-x="1521" d="M12 1114l37 -12q37 123 141 123q16 0 40 -4t57 -13q70 -16 100 -16q55 0 121 18q-104 -76 -150 -180q-39 -92 -41 -233q-111 0 -176 -35q-72 -41 -104 -139l31 -15q51 74 135 74q72 0 112 -68q33 -53 33 -137q-162 -4 -182 -184l31 -8q37 75 83 75h1q67 0 67 -79 q0 -94 -127 -211q-33 -31 -55.5 -52.5t-32.5 -35.5q-41 -53 -41 -115v-14q8 -74 68 -74q49 0 49 59q-4 16 -6 23l-10 18q-2 2 -3 4l-2 2q-14 23 -14 47q4 55 55 82q109 59 258 60q178 0 398 -99l202 283l-36 27q-68 -94 -140 -95q-29 0 -71.5 2.5t-102.5 6.5q-57 4 -100 7 t-72 3q242 242 473 242q90 0 205 -43q0 -98 -61 -199q-16 -29 -49 -71t-80 -99q-92 -111 -92 -193q0 -45 32.5 -78.5t77.5 -33.5h8q6 0 11 2q67 8 67 63t-53 56q-2 -2 -4 -2h-6q-23 -12 -45 -13q-29 4 -29 35q0 14 14.5 34.5t34.5 41.5q33 27 41 35q184 147 217 184 q76 78 96 184q16 76 17 211q0 172 -29 269q-39 121 -154 217q-29 23 -51 40t-37 27l-340 -284v260q0 14 2 24q6 66 27 92q39 47 105 84q12 6 42.5 19.5t81.5 36.5l-14 41q-141 -37 -276 -115q-106 -63 -138 -160q-20 -59 -20 -215v-364q0 -121 -42 -198t-144 -144 q-10 -8 -19.5 -13.5t-15.5 -9.5q25 51 43 88t31 62q24 61 24 180v10v485q0 117 47 189q43 61 152 121q63 33 78 43l-17 41q-137 -66 -233 -66q-49 0 -137 25q-82 22 -128 22h-10q-102 -4 -172 -82q-61 -68 -84 -176zM829 453v223q111 -41 207 -41q119 0 207 41v-12 q0 -6 2 -17v-26v-113v-29q-2 -10 -2 -18v-10q-112 38 -199 38h-4q-76 0 -192 -34q-6 0 -8 -2h-11zM829 727v51l236 193q168 -109 184 -240q-88 -51 -209 -51q-113 0 -211 47z" />
<glyph unicode="I" horiz-adv-x="1060" d="M-27 -10l25 -8h2q57 104 147 104q78 0 226 -55q150 -55 231 -56q156 0 252 117q78 100 94 270q2 23 3 40.5t1 27.5q0 63 -9 150.5t-25 201.5q-37 242 -37 351q0 164 155 202l31 8l-20 33q-328 -49 -328 -438q0 -59 9 -147.5t25.5 -207t26 -207.5t9.5 -149q0 -80 -41 -133 t-119 -53q-59 0 -162 90q-29 27 -49.5 43t-34.5 25q121 12 180 55q70 51 70 168q0 47 -6 114.5t-16.5 159.5t-16.5 161t-6 116q0 233 180 389l-18 20q-72 -34 -144 -34h-4q-51 0 -141 20q-96 23 -144 23q-94 0 -160.5 -64.5t-76.5 -163.5l22 -6q49 104 146 105q10 0 22.5 -1 t22.5 -4q53 -10 87 -15t44 -5q51 0 170 41q12 4 14 6q-190 -184 -200 -459q-18 4 -26.5 5t-16.5 4h-17q-139 0 -227 -162l18 -15q66 59 140 60q80 0 120 -60q68 -102 68 -235q0 -125 -53 -154q-59 -31 -174 -41q-201 -18 -269 -237z" />
<glyph unicode="J" horiz-adv-x="1132" d="M-25 -238l29 -14q61 74 113 74q41 0 125 -25q77 -26 125 -26h4q244 0 456 239q178 199 179 531q0 35 -2.5 85t-6.5 117q-6 137 -6 205q0 125 56 221q51 72 89 123t66 84l-28 33q-121 -100 -273 -100q-90 0 -268 37q-88 20 -154.5 29t-113.5 9q-123 0 -224 -81 q-102 -84 -102 -201v-12q0 -10 2 -13q20 -125 117 -125q41 0 69.5 28t28.5 69q0 37 -23.5 60.5t-60.5 23.5q-10 -2 -27 -13l-13 -6t-21 -6q-16 4 -17 27q6 47 60 75q49 23 100 23q63 0 154 -25q20 -6 28 -6q117 -33 187 -33q74 0 194 31q-147 -88 -213 -180 q-82 -113 -84 -264q-78 53 -145 53q-115 0 -203 -88l18 -33q16 10 35 17.5t41 11.5q6 0 13 2h14q90 0 141 -64q33 -41 47 -84q8 -20 25 -90q-12 8 -25 13q-70 36 -126 36h-3q-96 0 -180 -65l18 -31l21 4q20 4 36.5 6t26.5 2q111 0 201 -90q78 -80 107 -198q4 -23 7 -40.5 t1 -31.5q-4 -59 -50 -100t-108 -41q-29 0 -55 6q-139 31 -166 31q-174 0 -236 -220zM506 -129q117 72 149 168q27 68 27 229q0 29 -1 73t-3 101q-2 59 -2 103v73q0 244 76 394q82 168 288 270q-145 -145 -198 -299q-43 -127 -43 -362v-66q0 -37 2 -90q2 -51 3 -89t1 -65 q0 -379 -299 -440z" />
<glyph unicode="K" horiz-adv-x="1443" d="M-12 1094l39 -15q55 143 188 144q8 0 29.5 -2t56.5 -7q29 -4 49.5 -6t36.5 -2q90 0 240 76l-58 -53l-28.5 -28.5t-20.5 -22.5q-121 -133 -121 -324q-72 53 -147 53q-111 -12 -154 -131l31 -8q41 39 88 39q88 0 137 -62.5t56 -154.5v-12v-29q-2 -2 -2 -6v-8 q-57 57 -129 57h-5q-102 -4 -145 -119l33 -16q32 32 69 32h2q43 0 74 -33.5t31 -76.5q0 -80 -98.5 -184.5t-206.5 -176.5l30 -43q209 94 383 95q199 0 396 -95l225 250q86 -174 190 -250l205 201l-28 33l-17 -19q-30 -34 -57 -34h-2q-37 25 -51.5 48t-20.5 36 q-174 311 -350 419l364 250l-210 260l-351 -280q20 260 160 475l-35 27q-174 -219 -174 -689v-28q0 -20 2 -31v-59q0 -137 -39 -209q-43 -80 -155 -144q-43 -27 -82 -38l-197 -95l207 170q80 63 123 129q53 78 53 283q-2 10 -2 20v21v39q0 53 3 103t7 98q20 201 138 419 l-19 15q-72 -55 -158 -56q-57 0 -120 19q-8 0 -21 4q-96 22 -139 22h-4q-117 0 -201 -90q-76 -80 -98 -200zM563 217q90 63 130 135t46 183q176 -50 305 -267l-114 -131q-160 80 -367 80zM739 580v251l230 183l145 -178z" />
<glyph unicode="L" horiz-adv-x="1230" d="M16 1167q0 -29 17 -82l37 13q0 4 -2 6v6q-4 16 -5 25q0 41 26 70.5t65 29.5t86 -18q4 0 6 -3h6q60 -22 95 -22h3q49 0 174 29l-18 -19q-143 -143 -144 -338q0 -12 2.5 -36.5t2.5 -36.5q-18 6 -27 6q-23 6 -53 6q-86 -2 -162 -94l25 -21q41 29 88 29q145 0 151 -185 q-47 35 -100 35q-57 0 -113 -61l21 -25q27 12 55 13q53 0 87 -41t38 -97v-10q-6 -141 -197 -278q-25 -18 -44 -31.5t-36 -22.5l25 -39q266 145 522 146q199 0 391 -146l230 213l-35 37l-92 -86q-152 129 -340 129q-23 0 -46.5 -1t-45.5 -3q-102 -12 -185 -41 q86 66 144.5 125.5t93.5 110.5q100 139 100 315q0 29 -3 74t-11 104q-12 119 -12 181q0 174 217 200l-23 45q-174 0 -274 -82q-106 -88 -107 -260q0 -57 13 -170q8 -57 11 -99t3 -71q0 -315 -281 -506q172 221 172 467q0 35 -3 84.5t-11 115t-11 115.5t-3 83q0 90 39 153 q31 53 106 117q10 8 17.5 14.5t11.5 10.5l-19 28q-111 -55 -184 -55q-49 0 -141 31q-87 30 -137 30h-3q-86 -4 -149.5 -67.5t-63.5 -149.5z" />
<glyph unicode="M" horiz-adv-x="1757" d="M-25 -186h41q18 88 97 88h22t23 -2l41 -4q14 0 42.5 -2.5t43.5 -2.5q289 0 288 345v389h256v-281q0 -106 -65 -147v-27q137 -104 215 -197l332 291l-33 31l-70 -59v385l113 149h-113v453l49 34l138 -110v-871q0 -90 6 -129q12 -68 55 -112q14 -16 33 -31l43 -31l227 181 l-35 36l-57 -47q-63 33 -63 117v737q0 127 38 199q18 27 34 46.5t26 33.5l-35 29q-10 -10 -21.5 -20.5t-21.5 -20.5l-41 -41l-211 170l-346 -252q-2 43 -9 75.5t-18 55.5q-25 53 -92 96q-10 4 -16 8t-10 6q-66 -35 -114 -60.5t-81 -41.5q-88 -47 -152.5 -91t-107.5 -85 q-127 -117 -154 -266q-12 -72 -12 -158q-182 -29 -250 -162l35 -29q49 61 109 62q72 0 116 -57q82 -102 82 -232q0 -51 -9 -86t-29.5 -57.5t-55.5 -36.5t-84 -23q-2 -2 -4 -2h-6q-109 -20 -150 -73q-37 -51 -39 -170zM309 51q90 37 121 127q23 61 23 180v418q0 78 6 180 q6 113 102 185q-31 -78 -31 -230v-606q0 -131 -18 -176q-31 -82 -139 -82q-39 0 -64 6v-2zM573 653v260q0 111 9 150q14 74 71 127q16 16 37 30.5t47 30.5q29 -23 46.5 -41t27.5 -38.5t14 -47t4 -63.5v-291h-172zM1030 317v308h135v-420q-25 -29 -57 -29q-63 0 -76 119 q-2 6 -2 22zM1030 770v324l135 98v-422h-135z" />
<glyph unicode="N" horiz-adv-x="1615" d="M-176 -92l26 -23q90 47 158 47q57 0 168 -30q106 -33 170 -33q205 0 316 158q69 99 69 291v6v192q94 59 234 78q6 2 16 2h14q61 0 111 -14q94 -29 158 -74q-20 -49 -62.5 -127t-105.5 -186q-115 -199 -158 -318l47 -16q88 162 270 162q92 0 191 -43l170 294l-47 19 l-68 -115l-28 4q-14 2 -27.5 3t-28.5 1h-28q-137 0 -242 -34l15 21t7 11l144 193q80 106 141 246q34 70 48 139q12 57 12 115q0 12 -1 24q-6 203 -159.5 326t-337.5 166l-617 -301v-199q-96 51 -172 51q-104 0 -174 -88l21 -27q53 33 104 33q98 0 158 -71q53 -63 63 -166 q-81 69 -169 69h-3q-94 0 -174 -84l21 -30q45 26 104 26h4q188 0 238 -198q-86 41 -135 41q-90 0 -162 -97l24 -26q63 41 111 41q39 0 75 -14.5t62.5 -40t43 -60.5t16.5 -74q0 -63 -36 -103t-97 -40q-35 0 -109 18q-53 8 -85 11.5t-42 5.5h-4h-8q-139 0 -250 -162zM463 4 q88 51 117 150q18 61 18 196v772l45 21q10 4 22.5 10t24.5 10v-798v-3v-4q0 -162 -35 -237q-49 -109 -192 -117zM731 573v252q145 -73 267 -73h3q160 0 322 106q0 -8 1 -17.5t3 -19.5q0 -10 2 -18v-19q0 -102 -49 -233q-133 90 -293 90q-100 0 -256 -68zM731 885v291 q16 4 23 4q63 18 133 18q147 0 261 -77t163 -214q-163 -108 -307 -108h-3q-141 0 -270 86z" />
<glyph unicode="O" horiz-adv-x="1497" d="M47 588q0 -256 166 -430q170 -176 420 -176q236 0 473 198q223 186 307 418q35 98 35 178q0 240 -188 410q-162 145 -418 198q-33 8 -39 9l-666 -400v-2q-90 -227 -90 -403zM205 707q0 241 198 391v-539q0 -92 -8 -123q-16 -59 -61 -104q-129 180 -129 375zM365 297 q137 106 172 160q57 82 57 231v526q27 0 52 -1t52 -3v-1077q-193 23 -333 164zM743 135v373q92 106 226 106q139 0 241 -120q-53 -158 -176 -256q-131 -103 -285 -103h-6zM743 571v308q115 -90 236 -91q119 0 244 91q29 -90 28 -152v-31q-2 -10 -2 -18v-12q-4 -39 -10 -70 t-12 -53q-126 116 -256 116h-2q-120 0 -226 -88zM743 926v278q340 -49 463 -280q-100 -94 -229 -95q-121 1 -234 97z" />
<glyph unicode="P" horiz-adv-x="1454" d="M-47 2l22 -25q174 106 410 125v-370h342v352q178 -20 338 -102l295 262v626q0 176 -117 310q-82 92 -270 206l-246 -167v147h-43v-176l-98 -72q-2 123 -73 194.5t-194 71.5q-145 0 -268 -133l29 -34q76 49 139 49q84 0 119 -60q47 -84 47 -223l-344 -240l10 -32 q113 -18 215 -111q119 -106 119 -330q-219 -37 -432 -268zM199 801l186 127v-269q-63 76 -186 142zM586 -223v1292l98 70v-1362h-98zM727 285v184q125 74 217 74q90 0 211 -72v-309q-231 105 -428 123zM727 520v279q119 -68 201 -68q102 0 227 76v-281q-113 59 -209 60 q-98 0 -219 -66zM727 856v311l104 68l33 -16q137 -70 199 -129q94 -88 94 -209v-11q-2 -2 -2 -4v-6q-86 -68 -188 -80q-10 0 -19 -2h-18q-107 0 -203 78z" />
<glyph unicode="Q" horiz-adv-x="1546" d="M47 578q0 -231 117 -375q39 -49 91 -90t111.5 -71t124 -45t127.5 -15q88 0 166 18q135 39 263 131l288 -211l193 180l-37 37l-59 -55l-226 168l17 16q276 276 276 512q0 231 -190 410q-170 158 -469 201q-4 0 -21 4l-659 -396v-2q-113 -233 -113 -417zM219 707 q0 226 199 376v-555q0 -127 -62 -202q-137 156 -137 381zM393 293q129 104 168 168q57 88 57 233v502h29q16 0 27 -2q12 0 25.5 -1t27.5 1v-1047q-37 4 -69.5 11.5t-61.5 17.5q-96 27 -203 117zM772 150v360q89 108 226 108h3q145 0 254 -116q-68 -156 -190 -250 q-134 -102 -287 -102h-6zM772 578v294q127 -79 235 -79h3q121 0 254 98q32 -72 32 -162v-6q0 -98 -26 -172q-125 115 -264 115q-125 0 -234 -88zM772 928v260q43 -4 83 -13.5t77 -19.5q238 -74 311 -223q-96 -94 -233 -94q-105 0 -238 90z" />
<glyph unicode="R" horiz-adv-x="1433" d="M-25 12l19 -16q156 86 348 98h18h19q233 0 409 -119l232 220l-31 32l-94 -90q-16 14 -35.5 24.5t-40.5 20.5l-82 37v387l39 25q240 -51 326 -385q39 -156 115 -234q16 -12 27 -21t20 -16l211 197l-31 35l-76 -70q-49 41 -84 125q-10 35 -22.5 72t-22.5 74 q-80 250 -278 350l303 203l-312 423l-366 -249q-12 249 -277 249h-2q-150 0 -262 -131l21 -24q70 45 139 45q168 0 184 -221q2 -8 2 -27v-25l-354 -247v-31q193 -63 301 -225q8 -10 18 -25q43 -84 43 -211q-246 -31 -424 -250zM184 799l207 143v-299q-72 80 -207 156z M586 258v821l106 74v-922q-39 10 -64.5 16.5t-41.5 10.5zM737 659v523l84 57l248 -352z" />
<glyph unicode="S" horiz-adv-x="1492" d="M217 -20q12 0 23 -3h24q172 0 416 123q16 -10 37.5 -19t46.5 -20q49 -31 139 -53q240 119 363 225q192 165 192 357v2q0 197 -192 291q-123 59 -320 59h-67q-2 -2 -9 -2q-6 0 -8 2l223 393l-36 25l-62 -109l-399 142v-2q-356 -262 -357 -492q-172 -72 -172 -217 q0 -104 78 -154q98 -68 211 -69q20 -2 41 0h139l-71 -127q-84 12 -166 12q-102 0 -178 -49q-93 -54 -93 -148q0 -143 197 -167zM113 104q0 39 30 58q45 28 110 28h4.5h4.5q152 0 356 -69v-2q-195 -100 -385 -101q-8 0 -14 2h-14q-92 14 -92 84zM182 764q0 55 56 96 q29 -74 90 -96q49 -16 137 -16q59 0 120 4t122 12l-74 -131l-62 -4q-31 -2 -61.5 -3t-63.5 -1h-61q-76 0 -133 30q-70 39 -70 109zM358 1057q0 63 48.5 108t113.5 52h17q137 0 362 -117l-94 -164q-49 -6 -86 -10t-62 -6h-51q-16 -2 -28 -2h-21h-12h-13q-174 8 -174 139z M506 326l78 133q20 0 32 6l211 22q57 6 103 7q41 0 71 -19q39 -25 39 -61q0 -41 -34 -76q-51 -39 -88 -65.5t-64 -43.5q-43 14 -86 27.5t-86 24.5zM686 641l74 127q53 4 107.5 6t107.5 2q135 0 231 -65q113 -76 113 -205q0 -184 -238 -350q-6 -2 -12 -9q-16 8 -34.5 15.5 t-37.5 15.5l-73 29l49 26q31 18 53 31q184 111 184 230q0 123 -172 159q-35 8 -88 9q-25 0 -88 -7q-8 0 -22.5 -2t-22.5 -2q-39 -8 -71.5 -10t-59.5 0z" />
<glyph unicode="T" horiz-adv-x="1335" d="M-53 963l33 -15q115 262 376 262h23q10 -2 22 -2q10 -2 21.5 -3t21.5 -1q-378 -263 -378 -616q0 -260 180 -432q182 -170 438 -170q225 0 408 135q180 137 233 356l-33 6q-139 -250 -381 -307v957q12 0 39 -2.5t39 -2.5q137 0 230.5 74t105.5 209l-33 10 q-62 -112 -210 -112h-3q-104 0 -307 37q-102 20 -178 29t-129 9q-205 0 -337 -109.5t-181 -311.5zM248 690q0 160 69 297q76 151 209 217v-694q0 -164 -90 -229q-188 170 -188 409zM479 248q70 57 104.5 84.5t37.5 29.5q111 100 110 289v514q12 0 29.5 -3t38 -7t38 -8 t29.5 -6v-975q-6 -2 -12 -2t-10 -2q-10 -2 -22.5 -3t-24.5 -1h-25q-154 0 -293 90z" />
<glyph unicode="U" horiz-adv-x="1507" d="M0 1038q0 -10 2 -14l41 -2q0 227 160 227h30t31 -2q78 -8 123 -12t62 -4h32q27 4 43.5 5t22.5 3q-238 -158 -338 -285q-137 -174 -137 -409q0 -231 147 -393q152 -170 377 -170q131 0 235 34q150 51 320 201q2 -94 33 -154q33 -63 110 -106l205 170l-26 37 q-29 -18 -56 -19q-29 0 -41 23q-20 35 -20 106v721q0 170 67 254q18 20 32.5 35.5t25.5 26.5l-37 30l-96 -100l-193 143l-227 -237l30 -31l107 109l90 -72v-291q-51 -33 -131 -41h-29q-94 10 -161 66v528l-29 -2q-25 -31 -60 -47q-55 -27 -133 -27q-61 0 -192 43 q-129 41 -184 41h-5q-115 -6 -165 -92q-66 -115 -66 -278v-15zM266 641q0 205 123 375q115 154 305 254q-53 -68 -86 -111t-43 -59q-59 -100 -59 -207v-365q0 -198 -96 -270v-2q-143 156 -144 385zM453 217q100 59 180 145q72 78 72 211v504q-1 136 83 226v-1170h-26 q-4 -2 -12 -2h-27h-12q-154 8 -258 86zM834 141v412q76 47 149 47q76 0 172 -49v-260q-169 -134 -321 -150zM834 608v221q61 -41 131 -49q6 -2 16 -2h12q96 0 162 35v-213q-84 45 -172 45q-61 0 -149 -37z" />
<glyph unicode="V" horiz-adv-x="1282" d="M-25 1102l33 -12q4 14 6 24t4 19q33 104 107 104q98 0 151 -104q100 -199 101 -512q-67 81 -150 81h-2q-98 0 -157 -114l24 -23q45 35 90 35q66 0 111 -51q43 -49 57 -111q6 -41 6 -55q0 -131 -118 -342q-8 -10 -12.5 -18.5t-8.5 -12.5l33 -35q109 72 209 72h12 q88 0 197 -72q131 121 227 223.5t156 188.5q184 260 184 522q0 217 -150 484l-569 -291v-2q-104 313 -326 313q-82 0 -127 -63q-29 -41 -51 -102.5t-37 -145.5zM303 61q12 20 19 31l108 176q51 80 94 217v-2q92 33 168 33q141 0 256 -67q-82 -174 -168 -283q-90 29 -153 29 q-137 0 -324 -134zM530 1057l388 198q111 -172 120 -397q-123 -57 -254 -57q-84 0 -217 35q-4 29 -7 51t-5 37q-9 80 -25 133zM539 539q30 113 30 252v-3q63 -23 154 -30h10t17 -2h26q141 0 262 55q-2 -78 -19.5 -158t-49.5 -157q-137 67 -269 67h-4q-63 0 -157 -24z" />
<glyph unicode="W" horiz-adv-x="1769" d="M-25 1114l43 -8q0 51 25 95t72 44q43 0 75 -33q119 -125 138 -428l4 -63q2 -16 2 -33v-31q-63 70 -146 70q-86 0 -147 -106l27 -29q41 29 73 29q72 0 121 -68q45 -57 45 -135q0 -152 -135 -379q-8 -10 -12 -19.5t-8 -13.5l22 -31q159 99 303 99h8q86 -4 185 -99 q41 23 55 27q127 72 233 72q88 0 191 -99q573 467 573 895q0 236 -190 531l-440 -307q-61 162 -164 311l-443 -318v-2q-31 121 -100 205q-84 104 -192 105q-162 0 -207 -228q-4 -16 -6.5 -29.5t-4.5 -23.5zM262 90q57 94 107.5 184.5t91.5 182.5v-2q111 53 196 53 q90 0 207 -74q-25 -66 -53.5 -122t-60.5 -107q-90 12 -121 12q-135 0 -346 -117q-8 -4 -12.5 -6t-8.5 -4zM483 518q43 143 43 258v10q-2 3 -2 9v4q68 -43 170 -54h31q90 0 209 64v-12q0 -8 2 -11v-24q0 -121 -53 -285q-139 76 -230 76h-20q-10 -2 -23 -2q-70 -10 -127 -33z M496 1038l280 201q86 -109 129 -270q18 -72 25 -107q-91 -67 -209 -67h-4q-92 0 -193 51v6q0 93 -28 186zM745 98q201 201 297 371v-2q74 43 170 43q111 0 220 -70q-16 -33 -19 -34q-66 -127 -123 -197q-81 24 -138 24h-5q-150 0 -373 -120l-14 -7q-4 -4 -8 -5t-7 -3z M1073 530q66 121 66 271v-2q92 -39 184 -39q100 0 184 39q2 -6 2 -15v-14q0 -14 -1 -30.5t-3 -32.5q-18 -123 -49 -209q-4 -12 -6 -15q-127 70 -233 70q-63 0 -144 -23zM1106 1055l268 180q106 -139 133 -389q-115 -43 -182 -43q-92 0 -186 43q0 105 -33 209z" />
<glyph unicode="X" horiz-adv-x="1128" d="M-45 1194l31 -25q78 78 164 78q74 0 110 -49q23 -35 37 -61.5t22 -46.5q8 -12 17 -37q0 -2 2 -2v-2l104 -248h-237l-72 -156h379l-197 -442q-86 33 -148.5 58.5t-103.5 43.5l-77 -182q156 -53 282 -148l264 590l146 -344q47 -111 76 -147q45 -61 135 -99l233 207l-39 39 l-14 -14q-10 -10 -16 -14q-41 -47 -80 -48q-27 0 -41 25q-23 41 -37 69.5t-23 47.5l-151 358h242l71 156h-397l172 385q78 -43 235 -96l78 161q-160 72 -272 154l-232 -516l-106 256q-51 125 -96 176q-68 78 -178 78q-178 0 -283 -205z" />
<glyph unicode="Y" horiz-adv-x="1374" d="M100 -209q95 -70 212 -70h7q104 4 278.5 98.5t238.5 94.5h8q4 0 6 -2q29 -4 29 -25q0 -18 -9 -20q-26 -40 -26 -72v-2q0 -39 24.5 -65.5t63.5 -26.5q90 0 90 100q0 84 -90 138q-74 43 -168 43t-268 -68q-176 -68 -258 -68q-78 0 -134.5 48.5t-56.5 121.5q0 82 64 131 q96 72 213 72q35 0 87 -1t123.5 -3t122.5 -2h88q582 0 582 647v6v6q-2 180 -108 314q-115 141 -291 141q-98 0 -215 -53q-29 -12 -78 -40t-119 -69q-41 225 -272 226q-109 0 -205 -78l22 -33v-2q37 22 71 22h3q162 0 187 -221q2 -18 3 -42.5t1 -55.5v-76q-88 63 -179 64 q-43 0 -104 -29l8 -35h8q6 0 9 2h14q123 0 188 -92q53 -80 56 -211v-6v-6q-102 78 -201 78h-19q-8 0 -18 -2l-37 -4v-29q137 -12 209 -123q61 -92 66 -242v-2v-4q-135 0 -226 -69q-100 -77 -100 -198q0 -126 100 -206zM516 266v840l92 55v-895h-92zM653 266v289 q109 84 203 84q131 0 246 -96q-92 -277 -439 -277h-10zM653 610v279q96 -82 226 -82q113 0 233 92q14 -51 14 -160q0 -68 -14 -145q-113 90 -250 90q-103 0 -209 -74zM653 950v232q80 39 148 39q111 0 194 -84q74 -76 103 -189q-96 -98 -226 -98q-110 0 -219 100z" />
<glyph unicode="Z" horiz-adv-x="1040" d="M-18 12l26 -37q217 96 406 97q221 0 420 -97l206 261l-34 32l-101 -125q-150 76 -305 76q-156 0 -444 -115q137 129 238.5 248t170.5 232h318l30 69l-305 -2q23 35 37 62.5t25 46.5h291l32 74l-291 -3q160 315 312 533l-27 27q-170 -90 -379 -91q-162 0 -350 89 l-227 -267l37 -30l114 129q125 -55 258 -56q168 0 439 115q-117 -117 -215.5 -228.5t-180.5 -217.5h-295l-32 -74l282 -2q-18 -35 -32.5 -61.5t-24.5 -43.5h-270l-33 -69l266 -2q-41 -76 -80 -150t-80 -149q-102 -172 -202 -271z" />
<glyph unicode="[" d="M391 -330h371v152h-199v1390h199v152h-371v-1694z" />
<glyph unicode="\" horiz-adv-x="489" d="M59 123q129 -41 246 -148l215 172l-28 27l-64 -51q-12 10 -24.5 20.5t-24.5 20.5l-53 39v1020l172 -45l32 159l-198 47q-55 -47 -107.5 -87t-99.5 -72v-897v-21v-20q-2 -104 -66 -140v-24z" />
<glyph unicode="]" d="M262 -178v-152h371v1694h-371v-150h197v-1392h-197z" />
<glyph unicode="^" d="M51 748h199l262 475l262 -475h199l-338 624h-246z" />
<glyph unicode="_" d="M0 -131v-137h1024v137h-1024z" />
<glyph unicode="`" d="M315 1419l72 -178l322 -67l-215 245h-179z" />
<glyph unicode="a" horiz-adv-x="835" d="M225 -25l271 218q12 -106 75 -177q14 -14 25.5 -23t19.5 -18l218 170l-21 25q-4 -4 -8 -4l-2 -2l-4 -4q-37 -16 -49 -17q-49 6 -52 80v17v405v53q0 25 2 47q2 96 72 203l-27 17q-47 -45 -92 -45q-102 0 -256 79q-8 4 -12 6.5t-8 4.5q-102 -86 -250 -86h-23q-2 0 -4 2h-10 q-6 0 -6 2l176 -316l-29 -32q-163 -181 -163 -349q0 -135 157 -256zM150 891l346 -115v-244l-195 84zM238 358q0 61 24 164q14 61 21 62l102 -45l111 -47v-248l-131 -109q-127 117 -127 223z" />
<glyph unicode="b" horiz-adv-x="837" d="M39 1333q8 -8 15 -14l14 -12l22 -23q39 -57 39 -151v-824q0 -108 -55 -139v-23q231 -41 379 -172q109 96 305 175v559q0 78 -9.5 127t-48.5 96q-16 18 -79 80l-291 -244v348q0 96 18 146q20 63 92 110l-6 19q-137 -20 -231 -121q-76 59 -152 90zM330 233v488l164 137 q61 -53 61 -176v-545z" />
<glyph unicode="c" horiz-adv-x="628" d="M63 784q53 -6 66.5 -25.5t13.5 -74.5v-418q0 -115 -57 -153v-27q168 -16 307 -111l236 189l-21 26l-88 -69l-176 80v622l170 -94l102 150l-237 131q-160 -152 -316 -199v-27z" />
<glyph unicode="d" horiz-adv-x="864" d="M78 123q92 -10 162 -33q109 -37 223 -115q127 92 301 164v670q0 100 45 147l-10 33q-61 -23 -103 -80l-618 457v-236l256 -194q-80 -61 -197 -82v-522q0 -137 -59 -185v-24zM346 246v602q18 12 28.5 20.5t22.5 20.5l166 -123v-623z" />
<glyph unicode="e" horiz-adv-x="729" d="M68 809l8 -23q68 0 67 -77v-422v-23q-4 -109 -67 -139v-23q139 -25 315 -127l297 201l-20 29l-146 -103q-68 37 -178 93v188l371 307l-250 320q-78 -47 -176.5 -97.5t-220.5 -103.5zM344 451v438l209 -268z" />
<glyph unicode="f" horiz-adv-x="509" d="M66 862h79v-555v-20q-2 -104 -65 -140v-24q129 -41 246 -148l215 172l-29 27l-63 -51q-12 10 -24.5 20.5t-25.5 20.5l-53 39v659h135v109h-135v252l172 -45l33 159l-199 47q-55 -47 -107 -87t-100 -72v-254h-79v-109z" />
<glyph unicode="g" horiz-adv-x="874" d="M74 -248l18 -20q188 41 297 41q88 0 211 -49q39 16 66.5 29.5t48.5 21.5q154 76 153 157v6q0 36 -24 75q-25 42 -54.5 89.5t-53.5 99.5q-20 44 -20 94q0 8 1 17v471q111 -33 157 -43v215l-159 -86l-285 138q-160 -102 -338 -123v-699l217 -157zM252 -96l266 313 q8 -98 78 -199q63 -88 154 -149l-35 -21q-145 74 -273 74q-84 0 -190 -18zM291 252v618l227 -84v-507l-102 -121z" />
<glyph unicode="h" horiz-adv-x="845" d="M43 1343q88 -70 88 -202v-959l-82 -67l172 -142l180 136l-65 73v549l156 123q66 -49 65 -158v-493q0 -172 -57 -260q-59 -92 -211 -164q-29 -12 -49.5 -21.5t-34.5 -15.5l12 -37q272 109 373 184q102 72 143 177q33 86 33 231v405q0 86 -12 140q-16 74 -86 131l-45 37 l-287 -232v365q0 137 92 203q25 16 31 22l-13 23q-154 -27 -237 -123q-80 74 -150 104z" />
<glyph unicode="i" horiz-adv-x="499" d="M72 879l71 -62v-524q0 -111 -65 -133v-21q45 -27 93 -67.5t101 -96.5l213 166l-24 35l-62 -51l-57 51v633l70 63l-170 140zM260 1188l49 -4l170 231l-170 6z" />
<glyph unicode="j" horiz-adv-x="462" d="M20 848l23 -31l68 47l73 -73q-53 -154 -53 -289q0 -43 8 -111.5t25 -163.5q31 -176 31 -227q0 -158 -152 -262l12 -31q154 80 224 162q90 106 90 252q0 35 -5.5 85t-15.5 117.5t-15 118t-5 84.5q0 170 102 310q-98 61 -192 174zM256 1190l51 -6l164 235h-174z" />
<glyph unicode="k" horiz-adv-x="860" d="M29 1333q59 -39 82 -98q18 -47 18 -129v-811q0 -61 -8 -84q-12 -43 -58 -57v-31q147 -43 244 -148l260 211q20 -133 90 -211l217 172l-20 31l-55 -45q-29 35 -37 70q-16 72 -27.5 126t-19.5 91q-14 45 -56 94q-23 27 -75 82l-4 4q-6 0 -9 8l220 199l-193 205l-260 -252 v375q0 131 49 180q43 33 62 49l-7 27q-156 -33 -245 -127q-59 66 -156 96zM338 205v192l86 76q106 -76 137 -237l-123 -103zM338 451v256l151 145l136 -145z" />
<glyph unicode="l" horiz-adv-x="464" d="M31 1327q63 -33 86 -94q14 -37 14 -131v-805q0 -113 -70 -145v-33q143 -37 248 -144l195 158l-29 33l-43 -33l-100 70v903q0 86 8 119q16 63 59 100q14 10 23.5 19.5l15.5 15.5l-10 31q-143 -37 -227 -131q-61 57 -160 100z" />
<glyph unicode="m" horiz-adv-x="1333" d="M16 846l25 -39q8 4 12 7t8 5h2q20 14 35 15q39 -2 45 -66v-575l-71 -74l178 -144l166 138l-74 73v547l141 119l17 -16q2 -2 14 -19q51 -63 51 -131v-500l-65 -73l172 -138l168 138l-74 73v547l147 127l74 -82v-510q0 -162 57 -231q49 -41 74 -62l197 162l-25 31 q-35 -29 -57 -29q-43 2 -43 78v473q0 119 72 191l22 22l-27 29l-79 -78l-144 158l-272 -236q-10 133 -144 236l-276 -236q0 63 -10 109q-16 61 -103 127z" />
<glyph unicode="n" horiz-adv-x="909" d="M25 858l24 -33q29 20 51 21q43 0 45 -70v-6v-33q-2 -2 -2 -8v-532l-80 -74l175 -148l176 144l-70 74v561l141 116l80 -82v-514q0 -154 51 -225q23 -27 40.5 -45t31.5 -29l215 172l-24 39q-16 -12 -17 -12v-2q-29 -23 -47 -22q-49 0 -49 98v407q0 133 39 193 q20 27 36.5 45t28.5 31l-28 32l-97 -92l-147 148l-254 -211q0 72 -29 119q-20 33 -88 92z" />
<glyph unicode="o" horiz-adv-x="796" d="M45 127q193 -16 373 -152q29 23 65.5 44.5t77.5 43.5q23 12 62 30.5t92 41.5v727q-176 47 -324 148q-129 -117 -289 -166v-467q0 -31 -2 -68t-6 -82q-4 -41 -49 -73v-27zM301 231v621l213 -92v-621z" />
<glyph unicode="p" horiz-adv-x="858" d="M20 133q78 -8 121 -12v-125q0 -123 -39 -174q-23 -29 -55 -55l8 -25q12 6 21 6q96 39 145 88q104 -94 217 -127l19 37q-111 51 -111 211v98q82 -29 148 -80q90 94 282 195v500q0 168 -102 264q-33 27 -57.5 46t-41.5 32l-229 -219q-2 113 -76 178q-16 14 -27.5 23.5 t-19.5 17.5l-196 -158l20 -29l4 4h2q16 14 35 15q41 0 51 -74q2 -6 2 -20v-529q-49 -8 -80 -11t-41 -5v-72zM346 221v510l121 113q68 -45 84 -76q20 -33 20 -113v-510q-47 27 -103 46.5t-122 29.5z" />
<glyph unicode="q" horiz-adv-x="833" d="M88 293q0 -172 57 -232q70 -59 111 -86l260 211v-184q0 -90 -12 -141q-16 -63 -113 -121l6 -31q164 31 242 121q90 -70 164 -90l14 29q-72 70 -86 104q-12 33 -12 133v709q0 18 2 28q6 39 55 70v29q-186 16 -385 166q-102 -90 -246 -150q-41 -16 -57 -18v-547zM295 324 v514l221 -109v-491l-133 -111q-43 33 -55 49q-33 39 -33 148z" />
<glyph unicode="r" horiz-adv-x="669" d="M10 838l25 -29l59 49l21 -20q28 -34 28 -112v-5v-414q0 -123 -69 -162v-24q125 -25 250 -146l247 199l-28 33l-94 -74l-101 74v575l82 72l121 -149l139 129l-147 182l-187 -170q-39 106 -143 166z" />
<glyph unicode="s" horiz-adv-x="825" d="M20 -2l27 -23q96 76 205 76q102 0 227 -76q131 113 283 158v399l-209 121l172 238q78 109 88 170v18q0 86 -74 86q-59 0 -59 -59q0 -33 22 -55q0 -2 3 -2q20 -20 20 -48q0 -33 -37 -51q-27 -14 -63 -14q-119 0 -267 74q-90 -90 -116 -111q-55 -39 -152 -68v-362l191 -104 zM219 182l217 307l119 -65v-279q-104 57 -170 60q-4 2 -12 2h-13h-26q-10 -2 -17 -2h-10q-10 -2 -18 -4t-19 -4zM291 578v272q55 -35 131 -55q20 -4 39.5 -7.5t42.5 -3.5h22q33 0 60 9l-195 -273z" />
<glyph unicode="t" horiz-adv-x="501" d="M55 860h88v-559q0 -115 -65 -156v-28q143 -37 239 -142l218 179l-29 34l-64 -53l-32 25q-23 16 -39.5 27.5t-26.5 19.5v653h172v111h-172v305l-289 -383v-33z" />
<glyph unicode="u" horiz-adv-x="919" d="M33 827l26 -32l41 32l43 -32v-541q0 -76 -57 -96v-29q96 -39 223 -154l269 242q0 -76 18 -121q27 -70 106 -121l205 156l-30 33q-20 -20 -48 -21q-53 0 -53 93v567l68 59l-172 150l-166 -150l72 -59v-531l-144 -131l-90 72v590l68 59l-170 150z" />
<glyph unicode="v" horiz-adv-x="849" d="M47 999q0 -55 33 -112l16 -25q47 -90 47 -184v-395q0 -104 -61 -125v-25q186 -2 373 -158q125 119 313 175v491q0 53 -1 88t-3 53q-10 76 -49 129q-35 35 -60.5 59.5t-44.5 41.5l-264 -224v-2q-4 78 -84 177q-29 37 -46 58t-21 30q-18 33 -17 57q4 53 76 115q16 12 22 18 l-20 27q-33 -23 -63.5 -45.5t-63.5 -44.5q-82 -70 -82 -179zM346 236v505l141 117q53 -49 68 -94q12 -35 12 -119v-508q-108 52 -221 99z" />
<glyph unicode="w" horiz-adv-x="1271" d="M74 887q70 -70 69 -203v-428q0 -70 -45 -96q-16 -10 -32 -15v-22q211 -12 362 -148q90 96 195 97q115 0 260 -97q102 98 307 168v529q0 98 -14 153q-18 74 -99 146l-49 41l-270 -230q-14 145 -156 230l-260 -226v-2q-2 86 -86 183q-14 14 -24.5 25.5t-18.5 19.5 q-45 53 -45 96q0 55 78 123q2 2 4 3t4 3l6 6l-18 29q-59 -39 -94 -64.5t-48 -36.5q-71 -67 -71 -149q0 -72 45 -135zM342 221v516l139 119q53 -41 70 -82q12 -35 12 -108v-535zM764 233v506l141 117q16 -12 23 -18l16 -19q43 -53 43 -162v-514z" />
<glyph unicode="x" horiz-adv-x="837" d="M-4 80l180 -105l197 418l4 -8q2 -2 3 -4t3 -4q2 -10 8 -17l92 -190q66 -137 172 -195l203 164l-29 35q-4 -4 -6 -4q-49 -23 -59 -23q-45 0 -119 134q-43 78 -83 164.5t-79 185.5l88 188l158 -84l88 172l-207 105l-151 -328q-39 94 -107 184q-78 102 -151 144l-205 -183 l22 -32q20 20 45 32q16 4 23 5q18 0 37 -13q43 -29 90 -102q94 -182 135 -270l-127 -273l-151 78z" />
<glyph unicode="y" horiz-adv-x="782" d="M8 838l27 -31l4 4l2 2q2 0 4 2q31 25 51 25q45 0 49 -74v-6v-33q-2 -2 -2 -8v-502q0 -96 -65.5 -192.5t-65.5 -153.5q0 -84 62 -127q51 -39 141 -39q49 0 115 12q137 27 137 88q0 43 -41 43q-35 0 -86 -51q-59 -49 -129 -49q-61 0 -104.5 32t-43.5 89q0 55 41 96 q53 41 94.5 67.5t69.5 43.5q119 72 201 129t129 104q164 160 164 355v18q0 10 -2 16q-12 102 -37 164q-33 76 -94 142l-281 -226q0 137 -94 205q-16 10 -24.5 17.5t-12.5 9.5zM346 178v549l139 109q78 -113 78 -250v-13v-12q-8 -111 -66.5 -216t-150.5 -167z" />
<glyph unicode="z" horiz-adv-x="567" d="M0 823l27 -32l100 71l184 -149l-284 -301l24 -25q78 41 131 41q68 0 107 -47t39 -117q0 -96 -121 -211q-10 -4 -12 -12q-109 -96 -109 -180q0 -59 46 -99.5t106 -40.5h10q6 0 8 3q49 6 49 45q0 18 -29 24h-8q-12 0 -33.5 -6t-33.5 -6q-61 0 -68 74v6q4 41 35 69 q45 41 155.5 104.5t155.5 110.5q68 74 68 181q0 57 -21.5 104t-60.5 80t-90 51.5t-109 18.5q-6 -2 -14 -2q-8 -2 -14 0l260 274l-17 20q-4 -2 -12 -2q-6 -4 -12 0l-2 -2q-29 0 -95 47q-53 37 -110 95z" />
<glyph unicode="{" d="M246 418q117 -35 116 -191v-309q0 -188 97 -254q74 -49 276 -49h21q2 2 10 2h8v186q-117 4 -156 39q-41 35 -40 148v266q0 176 -113 244v-2q68 41 92 100q20 47 21 139v273q0 106 45 145q41 33 151 35v199l-37 -3q-121 -4 -178 -6q-100 -12 -151 -94q-45 -70 -46 -178 v-338q0 -154 -116 -180v-172z" />
<glyph unicode="|" d="M403 -340h220v1704h-220v-1704z" />
<glyph unicode="}" d="M250 -184v-197q6 -2 20 -2h107l64.5 6t23.5 2q190 16 197 266v3v335q0 150 116 185v168q-117 33 -116 194v309q0 197 -93 258q-70 45 -280 46h-19q-6 0 -11 -1.5t-9 1.5v-189q57 0 95 -8t60.5 -28.5t31.5 -55.5t9 -90v-275q0 -178 115 -239v-2q-70 -39 -94 -99 q-20 -47 -21 -137v-272q0 -109 -43 -141q-43 -35 -153 -37z" />
<glyph unicode="~" horiz-adv-x="1366" d="M193 1255l110 -90v-2q82 143 180 142q49 0 101 -23q72 -35 143 -72q84 -39 152 -39q195 0 299 248l-113 88l-4 -8q-68 -133 -170 -133q-66 0 -197 68q-127 70 -205 69q-190 0 -296 -248z" />
<glyph unicode="&#xa1;" horiz-adv-x="653" d="M68 -47l145 -248q152 0 254 62q121 78 121 221q0 78 -47 149q0 2 -103 127q-129 158 -145 371l-39 -2q0 -4 -2 -8v-9v-16q0 -141 63 -313q66 -178 66 -242q0 -29 -13.5 -55.5t-35 -46t-49 -31.5t-58.5 -12q-59 0 -135 69zM125 854l143 -145l146 145l-146 145z" />
<glyph unicode="&#xa2;" horiz-adv-x="790" d="M82 567q0 -315 326 -444v-125q0 -18 -1 -36.5t-4 -39.5l66 41l-6 146l37 -7l164 183q-16 -2 -33 -3t-33 -1q-70 0 -135 45v622l166 -88l135 158l-289 158q-6 -6 -12 -7l6 177l-70 -43l9 -177l-5 -6q-322 -252 -321 -553zM268 633q0 156 72 303l31 61l37 -18v-619 q-139 96 -140 273z" />
<glyph unicode="&#xa3;" horiz-adv-x="1122" d="M-12 10l18 -35q78 35 159 59.5t167 35.5q39 4 78 7t79 3q256 0 537 -105l109 211q-109 45 -215 66q-35 8 -72 11t-72 3q-147 0 -301 -39q111 150 111 316h278l64 168l-369 -2q-49 117 -49 223q0 102 76 223l385 -233l149 176l-348 213l-477 -236v-2q-33 -92 -33 -174 q0 -78 33 -188h-240l-57 -168l356 -2q59 -150 60 -310v-12q-2 -2 -2 -4v-8q-246 -80 -424 -197z" />
<glyph unicode="&#xa4;" horiz-adv-x="1429" d="M117 1178l200 -201q-94 -152 -94 -281q0 -145 90 -278l-194 -197l114 -115l197 195q158 -96 283 -96q158 0 291 98l196 -197l113 115l-197 195q90 152 90 278q0 137 -94 287l197 195l-115 114l-201 -200l-12 8q-8 4 -14 6q-139 78 -246 78q-82 0 -150 -27 q-16 -6 -51 -21.5t-86 -41.5l-203 200zM416 696q0 123 88 211q90 90 211 92v-2q121 0 211 -90q88 -88 88 -211q0 -125 -88 -213t-211 -88t-211 88t-88 213z" />
<glyph unicode="&#xa5;" horiz-adv-x="1245" d="M20 1362l271 -455h-244v-90h295l139 -233h-360v-92h385v-492h225v492h406v92h-379l141 233h297v90h-246l273 459h-242l-360 -647l-361 643h-240z" />
<glyph unicode="&#xa6;" horiz-adv-x="516" d="M197 -358h122v716h-122v-716zM197 666h122v716h-122v-716z" />
<glyph unicode="&#xa7;" horiz-adv-x="1177" d="M135 600q0 -125 113 -219q33 -27 88 -58.5t137 -70.5l74 -35q59 -29 102 -52.5t66 -39.5q96 -72 96 -152q0 -127 -164 -151q-2 -2 -12 -2h-17q-205 0 -225 223l-170 -2q0 -180 106.5 -275.5t291.5 -95.5h20q141 0 244 82q115 90 114 225q0 113 -106 207 q92 29 149.5 100.5t57.5 164.5q0 125 -113 219q-35 29 -89 61.5t-132 71.5q-41 20 -70.5 33.5t-50.5 23.5q-47 23 -81 42.5t-52 33.5q-78 59 -78 121q0 119 162 145q4 2 12 2h13q94 0 148 -56t56 -151h172v-2q-6 166 -108.5 259.5t-270.5 93.5q-143 0 -249 -70 q-121 -80 -121 -217q0 -109 92 -191q-205 -76 -205 -268zM303 616q0 125 137 164v-2q20 -6 42 -15t44 -20l9 -4q82 -39 156.5 -83t144.5 -91h4l2 -4q90 -68 90 -137q0 -53 -39 -95t-94 -57q-4 -4 -11 -4q-63 29 -112 54.5t-84 46.5q-164 94 -203 123q-29 25 -57.5 53 t-28.5 71z" />
<glyph unicode="&#xa8;" d="M195 1294l129 -129l127 129l-127 129zM573 1294l129 -129l127 129l-127 129z" />
<glyph unicode="&#xa9;" horiz-adv-x="1591" d="M88 682q0 -293 207 -500q205 -205 502 -205q293 0 497 205q207 207 207 500t-207 500q-206 205 -497 209v-2q-295 0 -502 -207t-207 -500zM197 682q0 252 174 428q174 178 426 182v-2q250 0 422 -180q174 -176 174 -428q0 -250 -174 -430q-172 -178 -422 -178 q-252 0 -426 178q-174 180 -174 430zM410 680q0 -176 106 -295q106 -117 283 -117q76 0 141.5 24.5t114.5 69t78.5 106.5t35.5 138l-108 -2q-14 -104 -85 -160.5t-177 -56.5q-119 0 -191 90q-63 82 -63 205q0 127 63 209q70 94 191 94q92 0 161.5 -43t90.5 -125l106 -2 q-12 131 -117 209q-102 78 -239 78q-176 0 -285 -121q-106 -119 -106 -301z" />
<glyph unicode="&#xaa;" horiz-adv-x="712" d="M59 600h613v100h-613v-100zM123 934q2 -88 94 -154l162 131q6 -59 45 -104l14 -12q6 -8 15 -15l129 103l-13 14q-2 -2 -4 -2l-6 -4q-12 -12 -24 -8l-3 -2q-25 2 -30 47v254q0 74 10 108q4 16 13.5 34.5t19.5 41.5l-17 8q-27 -27 -55 -26q-59 0 -145 43q-8 4 -12.5 6 t-8.5 4q-63 -51 -149 -51h-13q-4 0 -12 4l105 -191q-20 -27 -39 -52.5t-39 -51.5q-39 -63 -37 -125zM172 1331l207 -69v-146l-117 49zM225 1010q0 76 27 137l127 -55v-150l-78 -65q-76 70 -76 133z" />
<glyph unicode="&#xab;" horiz-adv-x="903" d="M68 518l284 -399l117 117l-252 354l260 317l-57 51zM385 518l285 -399l116 117l-251 354l260 317l-58 51z" />
<glyph unicode="&#xac;" d="M68 387h673v-387h213v580h-886v-193z" />
<glyph unicode="&#xad;" horiz-adv-x="468" d="M20 436l353 -2q27 76 73 166h-352v-2q-39 -98 -74 -162z" />
<glyph unicode="&#xae;" horiz-adv-x="1591" d="M88 682q0 -293 207 -500q207 -205 502 -205q293 0 497 205q207 207 207 500t-207 500q-206 205 -497 209v-2q-295 0 -502 -207t-207 -500zM197 682q0 252 174 428q174 178 426 182v-2q250 0 422 -180q174 -176 174 -428q0 -250 -174 -430q-172 -178 -422 -178 q-252 0 -426 178q-174 180 -174 430zM494 283h135v342l155 -2q133 -4 160 -54q35 -74 35 -194v-19q0 -45 16 -73l131 -2q-10 23 -17 58.5t-9 84.5q-2 51 -5 85t-12 54q-25 70 -108 101q141 61 141 202q0 113 -78 160q-66 39 -172 51q-10 2 -19 3t-16 1h-337v-798zM629 707 v288l178 -2q176 -4 176 -137q0 -150 -190 -149h-164z" />
<glyph unicode="&#xaf;" d="M213 1225h596v96h-596v-96z" />
<glyph unicode="&#xb0;" d="M209 1051q0 -117 90 -207q88 -86 211 -86q125 0 213 88q90 90 90 215v-2q0 125 -90 215t-213 90q-131 0 -217 -92q-84 -90 -84 -221zM303 1055q0 43 16.5 83t44 68.5t65.5 46t81 17.5q84 0 145 -64q64 -61 64 -145v-2q0 -43 -16.5 -81t-46 -66.5t-67.5 -45t-81 -16.5 q-82 0 -143.5 61.5t-61.5 143.5z" />
<glyph unicode="&#xb1;" d="M37 88h950v109h-950v-109zM37 676h418v-389h112v389h420v110h-420v400h-112v-400h-418v-110z" />
<glyph unicode="&#xb4;" d="M315 1174l322 67l72 178h-179z" />
<glyph unicode="&#xb5;" horiz-adv-x="1134" d="M123 -342h201v457q82 -135 237 -135q174 0 248 188v-168h201v981h-201v-526q0 -129 -57 -217q-68 -104 -189 -105q-240 0 -239 309v539h-201v-1323z" />
<glyph unicode="&#xb6;" horiz-adv-x="1187" d="M78 1001q0 -154 102 -256q100 -98 260 -98h43v-876h113v1507h205v-1507h112v1507h115v88l-500 -2q-451 -2 -450 -363z" />
<glyph unicode="&#xb7;" horiz-adv-x="1003" d="M354 485l148 -147l147 147l-147 148z" />
<glyph unicode="&#xb8;" d="M348 -172l8 -4q133 -68 133 -166q0 -47 -38 -104l12 -11q145 68 145 191q0 57 -71 129q-8 12 -21 20l160 131l-39 49z" />
<glyph unicode="&#xba;" horiz-adv-x="712" d="M49 600h613v100h-613v-100zM143 870q117 -10 224 -94q59 35 103 61t75 40v434q-104 27 -195 88q-86 -74 -174 -99v-323q0 -12 -1 -24.5t-3 -22.5q-10 -25 -16 -32t-13 -11v-17zM297 934v373l127 -56v-372z" />
<glyph unicode="&#xbb;" horiz-adv-x="903" d="M109 170l55 -51l354 440l-287 399l-116 -116l254 -357zM426 170l55 -51l355 440l-287 399l-117 -116l254 -357z" />
<glyph unicode="&#xbf;" horiz-adv-x="585" d="M117 -139l166 -166l174 174q-70 162 -106 351.5t-40 410.5l-51 -2q-18 -455 -143 -768zM137 842l146 -146l145 146l-145 147z" />
<glyph unicode="&#xc0;" horiz-adv-x="1288" d="M55 918q0 -262 260 -424l-147 -218q-16 -27 -34.5 -51t-35.5 -51q-37 -61 -37 -117q0 -6 2 -10v-10q14 -63 68 -64q49 0 53 41q0 10 -6 25.5t-14 31t-15.5 30t-7.5 20.5q0 16 14.5 30.5t30.5 14.5q37 0 86 -19q145 -59 314 -180l344 269q2 -43 6 -77t10 -61 q16 -74 117 -131l231 195l-32 35q-2 -2 -8.5 -7.5t-8.5 -7.5q-37 -31 -59 -30q-27 0 -39 28q-20 43 -21 131v8v9l-32 692q-2 23 -2 33t0 8v35q0 74 18 123q20 57 107 114l32 23l-22 33q-59 -27 -112.5 -66t-100.5 -90q-16 12 -28.5 21.5t-22.5 15.5q-199 127 -398 127h-8 h-10q-193 -8 -342.5 -149.5t-149.5 -329.5zM133 895q0 133 105 223q131 109 280 109q150 0 264 -62l-57 -86q-94 23 -170 23q-150 0 -225 -191l37 -18q63 82 139 82q49 0 117 -37l-279 -401q-211 150 -211 358zM260 338l80 115h580l8 -160l-199 -154zM440 598l381 541 q41 -27 68 -54l22 -487h-471zM760 1767l71 -178l322 -67l-215 245h-178z" />
<glyph unicode="&#xc1;" horiz-adv-x="1288" d="M55 918q0 -262 260 -424l-147 -218q-16 -27 -34.5 -51t-35.5 -51q-37 -61 -37 -117q0 -6 2 -10v-10q14 -63 68 -64q49 0 53 41q0 10 -6 25.5t-14 31t-15.5 30t-7.5 20.5q0 16 14.5 30.5t30.5 14.5q37 0 86 -19q145 -59 314 -180l344 269q2 -43 6 -77t10 -61 q16 -74 117 -131l231 195l-32 35q-2 -2 -8.5 -7.5t-8.5 -7.5q-37 -31 -59 -30q-27 0 -39 28q-20 43 -21 131v8v9l-32 692q-2 23 -2 33t0 8v35q0 74 18 123q20 57 107 114l32 23l-22 33q-59 -27 -112.5 -66t-100.5 -90q-16 12 -28.5 21.5t-22.5 15.5q-199 127 -398 127h-8 h-10q-193 -8 -342.5 -149.5t-149.5 -329.5zM133 895q0 133 105 223q131 109 280 109q150 0 264 -62l-57 -86q-94 23 -170 23q-150 0 -225 -191l37 -18q63 82 139 82q49 0 117 -37l-279 -401q-211 150 -211 358zM260 338l80 115h580l8 -160l-199 -154zM440 598l381 541 q41 -27 68 -54l22 -487h-471zM748 1522l321 67l72 178h-178z" />
<glyph unicode="&#xc2;" horiz-adv-x="1288" d="M55 918q0 -262 260 -424l-147 -218q-16 -27 -34.5 -51t-35.5 -51q-37 -61 -37 -117q0 -6 2 -10v-10q14 -63 68 -64q49 0 53 41q0 10 -6 25.5t-14 31t-15.5 30t-7.5 20.5q0 16 14.5 30.5t30.5 14.5q37 0 86 -19q145 -59 314 -180l344 269q2 -43 6 -77t10 -61 q16 -74 117 -131l231 195l-32 35q-2 -2 -8.5 -7.5t-8.5 -7.5q-37 -31 -59 -30q-27 0 -39 28q-20 43 -21 131v8v9l-32 692q-2 23 -2 33t0 8v35q0 74 18 123q20 57 107 114l32 23l-22 33q-59 -27 -112.5 -66t-100.5 -90q-16 12 -28.5 21.5t-22.5 15.5q-199 127 -398 127h-8 h-10q-193 -8 -342.5 -149.5t-149.5 -329.5zM133 895q0 133 105 223q131 109 280 109q150 0 264 -62l-57 -86q-94 23 -170 23q-150 0 -225 -191l37 -18q63 82 139 82q49 0 117 -37l-279 -401q-211 150 -211 358zM260 338l80 115h580l8 -160l-199 -154zM440 598l381 541 q41 -27 68 -54l22 -487h-471zM629 1503l45 -24l160 161l299 -161l129 133l-340 194z" />
<glyph unicode="&#xc3;" horiz-adv-x="1288" d="M55 918q0 -262 260 -424l-147 -218q-16 -27 -34.5 -51t-35.5 -51q-37 -61 -37 -117q0 -6 2 -10v-10q14 -63 68 -64q49 0 53 41q0 10 -6 25.5t-14 31t-15.5 30t-7.5 20.5q0 16 14.5 30.5t30.5 14.5q37 0 86 -19q145 -59 314 -180l344 269q2 -43 6 -77t10 -61 q16 -74 117 -131l231 195l-32 35q-2 -2 -8.5 -7.5t-8.5 -7.5q-37 -31 -59 -30q-27 0 -39 28q-20 43 -21 131v8v9l-32 692q-2 23 -2 33t0 8v35q0 74 18 123q20 57 107 114l32 23l-22 33q-59 -27 -112.5 -66t-100.5 -90q-16 12 -28.5 21.5t-22.5 15.5q-199 127 -398 127h-8 h-10q-193 -8 -342.5 -149.5t-149.5 -329.5zM133 895q0 133 105 223q131 109 280 109q150 0 264 -62l-57 -86q-94 23 -170 23q-150 0 -225 -191l37 -18q63 82 139 82q49 0 117 -37l-279 -401q-211 150 -211 358zM260 338l80 115h580l8 -160l-199 -154zM440 598l381 541 q41 -27 68 -54l22 -487h-471zM614 1583l43 -31l101 80l270 -155l285 247l-43 33l-135 -119l-273 154z" />
<glyph unicode="&#xc4;" horiz-adv-x="1288" d="M55 918q0 -262 260 -424l-147 -218q-16 -27 -34.5 -51t-35.5 -51q-37 -61 -37 -117q0 -6 2 -10v-10q14 -63 68 -64q49 0 53 41q0 10 -6 25.5t-14 31t-15.5 30t-7.5 20.5q0 16 14.5 30.5t30.5 14.5q37 0 86 -19q145 -59 314 -180l344 269q2 -43 6 -77t10 -61 q16 -74 117 -131l231 195l-32 35q-2 -2 -8.5 -7.5t-8.5 -7.5q-37 -31 -59 -30q-27 0 -39 28q-20 43 -21 131v8v9l-32 692q-2 23 -2 33t0 8v35q0 74 18 123q20 57 107 114l32 23l-22 33q-59 -27 -112.5 -66t-100.5 -90q-16 12 -28.5 21.5t-22.5 15.5q-199 127 -398 127h-8 h-10q-193 -8 -342.5 -149.5t-149.5 -329.5zM133 895q0 133 105 223q131 109 280 109q150 0 264 -62l-57 -86q-94 23 -170 23q-150 0 -225 -191l37 -18q63 82 139 82q49 0 117 -37l-279 -401q-211 150 -211 358zM260 338l80 115h580l8 -160l-199 -154zM440 598l381 541 q41 -27 68 -54l22 -487h-471zM631 1634l129 -129l127 129l-127 129zM1010 1634l129 -129l127 129l-127 129z" />
<glyph unicode="&#xc5;" horiz-adv-x="1288" d="M55 918q0 -262 260 -424l-147 -218q-16 -27 -34.5 -51t-35.5 -51q-37 -61 -37 -117q0 -6 2 -10v-10q14 -63 68 -64q49 0 53 41q0 10 -6 25.5t-14 31t-15.5 30t-7.5 20.5q0 16 14.5 30.5t30.5 14.5q37 0 86 -19q145 -59 314 -180l344 269q2 -43 6 -77t10 -61 q16 -74 117 -131l231 195l-32 35q-2 -2 -8.5 -7.5t-8.5 -7.5q-37 -31 -59 -30q-27 0 -39 28q-20 43 -21 131v8v9l-32 692q-2 23 -2 33t0 8v35q0 74 18 123q20 57 107 114l32 23l-22 33q-59 -27 -112.5 -66t-100.5 -90q-16 12 -28.5 21.5t-22.5 15.5q-199 127 -398 127h-8 h-10q-193 -8 -342.5 -149.5t-149.5 -329.5zM133 895q0 133 105 223q131 109 280 109q150 0 264 -62l-57 -86q-94 23 -170 23q-150 0 -225 -191l37 -18q63 82 139 82q49 0 117 -37l-279 -401q-211 150 -211 358zM260 338l80 115h580l8 -160l-199 -154zM440 598l381 541 q41 -27 68 -54l22 -487h-471zM766 1640q0 -158 190 -215v-2q55 0 123 90q68 88 68 150q0 156 -191 215l-8 -4q-182 -92 -182 -234zM842 1681q0 10 4 27q12 51 45 84q59 0 118.5 -59.5t59.5 -120.5q0 -62 -51 -101v-2q-27 6 -35 13q-141 57 -141 159z" />
<glyph unicode="&#xc6;" horiz-adv-x="1873" d="M55 39q8 -57 64 -62q57 -2 57 54q0 12 -18 49v2q-2 0 -2 2q-16 29 -17 43q0 35 41 41h4h2q29 0 80 -23q147 -72 305 -196l359 258v-121q-20 -16 -45 -36.5t-58 -49.5l23 -25q164 94 346 95q221 0 408 -103l256 232l-27 28l-90 -86q-156 94 -258 95q-104 0 -234 -41v487 q96 -59 183 -59q215 0 309 192l-29 25q-72 -63 -147 -64q-113 0 -205 92l-111 -92v424l74 47q106 -123 238 -123h6h6q186 2 270 160l-22 21q-59 -31 -117 -31q-164 0 -250 121l-344 -236q-238 231 -504 232q-211 0 -366 -148q-156 -143 -156 -352q0 -133 66 -229 q61 -86 180 -164l-150 -205q-20 -29 -40.5 -56.5t-43.5 -56.5q-43 -72 -43 -131v-10zM166 881q0 160 123 256q113 88 276 88q113 0 252 -80l-61 -86q-88 41 -168 41q-156 0 -219 -191l22 -16q76 76 137 76q53 0 123 -41l-291 -393q-195 145 -194 346zM266 340l86 115 l578 -27v-164l-201 -149zM457 592l397 524q20 -14 39 -28.5t37 -30.5v-486zM1128 135v983l82 56v-1000q-14 -6 -40.5 -19.5t-41.5 -19.5z" />
<glyph unicode="&#xc7;" horiz-adv-x="1263" d="M47 625q0 -256 166 -443q168 -186 422 -200l-213 -181l8 -4q133 -68 133 -170q0 -41 -35 -98q0 -4 -4 -8l13 -10q145 72 145 194q0 59 -76 135l-18 19l147 123l8 2q319 37 521 360l-23 23q-238 -188 -498 -185v1026q160 -78 301 -100l187 174q-223 0 -434 111l-400 -340 v-439q0 -86 -8 -116q-14 -57 -67 -95q-111 162 -111 363q0 254 283 498l-19 18q-100 -51 -177 -117.5t-134 -150.5q-117 -176 -117 -389zM348 367q147 123 166 145q57 63 72 147q12 57 12 168v316l100 92v-1051q-213 23 -350 183z" />
<glyph unicode="&#xc8;" horiz-adv-x="1298" d="M49 666q0 -281 187 -476q188 -195 462 -194q176 0 334 98q143 94 240 258l-15 17q-246 -180 -509 -176v602l331 -11l109 189l-236 6l289 291l-12 28q-4 0 -6 -2h-9h-14q-96 0 -184 25q-129 35 -211 86l-402 -320v-475q0 -23 -1 -41t-3 -32q-10 -55 -71 -111 q-113 168 -113 385q0 264 293 471l-19 31q-217 -117 -319 -260q-121 -164 -121 -389zM354 395q162 137 168 144q76 84 76 209v417l107 88v-1058q-217 33 -351 200zM453 1763l71 -178l322 -67l-215 245h-178zM748 834v395q133 -78 290 -103z" />
<glyph unicode="&#xc9;" horiz-adv-x="1298" d="M49 666q0 -281 187 -476q188 -195 462 -194q176 0 334 98q143 94 240 258l-15 17q-246 -180 -509 -176v602l331 -11l109 189l-236 6l289 291l-12 28q-4 0 -6 -2h-9h-14q-96 0 -184 25q-129 35 -211 86l-402 -320v-475q0 -23 -1 -41t-3 -32q-10 -55 -71 -111 q-113 168 -113 385q0 264 293 471l-19 31q-217 -117 -319 -260q-121 -164 -121 -389zM354 395q162 137 168 144q76 84 76 209v417l107 88v-1058q-217 33 -351 200zM453 1518l321 67l72 178h-178zM748 834v395q133 -78 290 -103z" />
<glyph unicode="&#xca;" horiz-adv-x="1298" d="M49 666q0 -281 187 -476q188 -195 462 -194q176 0 334 98q143 94 240 258l-15 17q-246 -180 -509 -176v602l331 -11l109 189l-236 6l289 291l-12 28q-4 0 -6 -2h-9h-14q-96 0 -184 25q-129 35 -211 86l-402 -320v-475q0 -23 -1 -41t-3 -32q-10 -55 -71 -111 q-113 168 -113 385q0 264 293 471l-19 31q-217 -117 -319 -260q-121 -164 -121 -389zM334 1479l45 -25l160 162l299 -162l129 133l-340 195zM354 395q162 137 168 144q76 84 76 209v417l107 88v-1058q-217 33 -351 200zM748 834v395q133 -78 290 -103z" />
<glyph unicode="&#xcb;" horiz-adv-x="1298" d="M49 666q0 -281 187 -476q188 -195 462 -194q176 0 334 98q143 94 240 258l-15 17q-246 -180 -509 -176v602l331 -11l109 189l-236 6l289 291l-12 28q-4 0 -6 -2h-9h-14q-96 0 -184 25q-129 35 -211 86l-402 -320v-475q0 -23 -1 -41t-3 -32q-10 -55 -71 -111 q-113 168 -113 385q0 264 293 471l-19 31q-217 -117 -319 -260q-121 -164 -121 -389zM332 1612l129 -129l127 129l-127 129zM354 395q162 137 168 144q76 84 76 209v417l107 88v-1058q-217 33 -351 200zM711 1612l129 -129l127 129l-127 129zM748 834v395q133 -78 290 -103z " />
<glyph unicode="&#xcc;" horiz-adv-x="1060" d="M-27 -10l25 -8h2q57 104 147 104q78 0 226 -55q150 -55 231 -56q156 0 252 117q78 100 94 270q2 23 3 40.5t1 27.5q0 63 -9 150.5t-25 201.5q-37 242 -37 351q0 164 155 202l31 8l-20 33q-328 -49 -328 -438q0 -59 9 -147.5t25.5 -207t26 -207.5t9.5 -149q0 -80 -41 -133 t-119 -53q-59 0 -162 90q-29 27 -49.5 43t-34.5 25q121 12 180 55q70 51 70 168q0 47 -6 114.5t-16.5 159.5t-16.5 161t-6 116q0 233 180 389l-18 20q-74 -35 -148 -34q-51 0 -141 20q-96 23 -144 23q-94 0 -160.5 -64.5t-76.5 -163.5l22 -6q49 104 146 105q10 0 22.5 -1 t22.5 -4q53 -10 87 -15t44 -5q51 0 170 41q12 4 14 6q-190 -184 -200 -459q-18 4 -26.5 5t-16.5 4h-17q-139 0 -227 -162l18 -15q66 59 140 60q80 0 120 -60q68 -102 68 -235q0 -125 -53 -154q-59 -31 -174 -41q-201 -18 -269 -237zM334 1763l72 -178l321 -67l-215 245h-178 z" />
<glyph unicode="&#xcd;" horiz-adv-x="1060" d="M-27 -10l25 -8h2q57 104 147 104q78 0 226 -55q150 -55 231 -56q156 0 252 117q78 100 94 270q2 23 3 40.5t1 27.5q0 63 -9 150.5t-25 201.5q-37 242 -37 351q0 164 155 202l31 8l-20 33q-328 -49 -328 -438q0 -59 9 -147.5t25.5 -207t26 -207.5t9.5 -149q0 -80 -41 -133 t-119 -53q-59 0 -162 90q-29 27 -49.5 43t-34.5 25q121 12 180 55q70 51 70 168q0 47 -6 114.5t-16.5 159.5t-16.5 161t-6 116q0 233 180 389l-18 20q-74 -35 -148 -34q-51 0 -141 20q-96 23 -144 23q-94 0 -160.5 -64.5t-76.5 -163.5l22 -6q49 104 146 105q10 0 22.5 -1 t22.5 -4q53 -10 87 -15t44 -5q51 0 170 41q12 4 14 6q-190 -184 -200 -459q-18 4 -26.5 5t-16.5 4h-17q-139 0 -227 -162l18 -15q66 59 140 60q80 0 120 -60q68 -102 68 -235q0 -125 -53 -154q-59 -31 -174 -41q-201 -18 -269 -237zM334 1518l321 67l72 178h-178z" />
<glyph unicode="&#xce;" horiz-adv-x="1060" d="M-27 -10l25 -8h2q57 104 147 104q78 0 226 -55q150 -55 231 -56q156 0 252 117q78 100 94 270q2 23 3 40.5t1 27.5q0 63 -9 150.5t-25 201.5q-37 242 -37 351q0 164 155 202l31 8l-20 33q-328 -49 -328 -438q0 -59 9 -147.5t25.5 -207t26 -207.5t9.5 -149q0 -80 -41 -133 t-119 -53q-59 0 -162 90q-29 27 -49.5 43t-34.5 25q121 12 180 55q70 51 70 168q0 47 -6 114.5t-16.5 159.5t-16.5 161t-6 116q0 233 180 389l-18 20q-74 -35 -148 -34q-51 0 -141 20q-96 23 -144 23q-94 0 -160.5 -64.5t-76.5 -163.5l22 -6q49 104 146 105q10 0 22.5 -1 t22.5 -4q53 -10 87 -15t44 -5q51 0 170 41q12 4 14 6q-190 -184 -200 -459q-18 4 -26.5 5t-16.5 4h-17q-139 0 -227 -162l18 -15q66 59 140 60q80 0 120 -60q68 -102 68 -235q0 -125 -53 -154q-59 -31 -174 -41q-201 -18 -269 -237zM215 1479l45 -25l160 162l299 -162 l129 133l-340 195z" />
<glyph unicode="&#xcf;" horiz-adv-x="1060" d="M-27 -10l25 -8h2q57 104 147 104q78 0 226 -55q150 -55 231 -56q156 0 252 117q78 100 94 270q2 23 3 40.5t1 27.5q0 63 -9 150.5t-25 201.5q-37 242 -37 351q0 164 155 202l31 8l-20 33q-328 -49 -328 -438q0 -59 9 -147.5t25.5 -207t26 -207.5t9.5 -149q0 -80 -41 -133 t-119 -53q-59 0 -162 90q-29 27 -49.5 43t-34.5 25q121 12 180 55q70 51 70 168q0 47 -6 114.5t-16.5 159.5t-16.5 161t-6 116q0 233 180 389l-18 20q-74 -35 -148 -34q-51 0 -141 20q-96 23 -144 23q-94 0 -160.5 -64.5t-76.5 -163.5l22 -6q49 104 146 105q10 0 22.5 -1 t22.5 -4q53 -10 87 -15t44 -5q51 0 170 41q12 4 14 6q-190 -184 -200 -459q-18 4 -26.5 5t-16.5 4h-17q-139 0 -227 -162l18 -15q66 59 140 60q80 0 120 -60q68 -102 68 -235q0 -125 -53 -154q-59 -31 -174 -41q-201 -18 -269 -237zM213 1612l129 -129l127 129l-127 129z M592 1612l129 -129l127 129l-127 129z" />
<glyph unicode="&#xd1;" horiz-adv-x="1615" d="M-176 -92l26 -23q90 47 158 47q57 0 168 -30q106 -33 170 -33q205 0 316 158q70 100 69 297v192q94 59 234 78q6 2 16 2h14q61 0 111 -14q94 -29 158 -74q-20 -49 -62.5 -127t-105.5 -186q-115 -199 -158 -318l47 -16q88 162 270 162q92 0 191 -43l170 294l-47 19 l-68 -115l-28 4q-14 2 -27.5 3t-28.5 1h-28q-137 0 -242 -34l15 21t7 11l144 193q80 106 141 246q33 70 47.5 139t11.5 139q-6 203 -159.5 326t-337.5 166l-617 -301v-199q-96 51 -172 51q-104 0 -174 -88l21 -27q53 33 104 33q98 0 158 -71q53 -63 63 -166q-82 70 -172 69 q-94 0 -174 -84l21 -30q47 27 108 26q188 0 238 -198q-86 41 -135 41q-90 0 -162 -97l24 -26q63 41 111 41q39 0 75 -14.5t62.5 -40t43 -60.5t16.5 -74q0 -63 -36 -103t-97 -40q-35 0 -109 18q-53 8 -85 11.5t-42 5.5h-4h-8q-139 0 -250 -162zM463 4q88 51 117 150 q18 61 18 196v772l45 21q10 4 22.5 10t24.5 10v-798v-3v-4q0 -162 -35 -237q-49 -109 -192 -117zM612 1567l43 -31l101 80l270 -156l285 248l-43 33l-135 -119l-273 154zM731 573v252q147 -74 270 -73q160 0 322 106q0 -8 1 -17.5t3 -19.5q0 -10 2 -18v-19q0 -102 -49 -233 q-133 90 -293 90q-100 0 -256 -68zM731 885v291q16 4 23 4q63 18 133 18q147 0 261 -77t163 -214q-164 -109 -310 -108q-141 0 -270 86z" />
<glyph unicode="&#xd2;" horiz-adv-x="1497" d="M47 588q0 -256 166 -430q170 -176 420 -176q236 0 473 198q223 186 307 418q35 98 35 178q0 240 -188 410q-162 145 -418 198q-33 8 -39 9l-666 -400v-2q-90 -227 -90 -403zM205 705q-1 243 198 393v-539q0 -92 -8 -123q-16 -59 -61 -104q-129 180 -129 373zM365 297 q137 106 172 160q57 82 57 231v526q27 0 52 -1t52 -3v-1077q-193 23 -333 164zM551 1761l72 -178l321 -67l-215 245h-178zM743 135v373q92 106 226 106q139 0 241 -120q-53 -158 -176 -256q-133 -105 -291 -103zM743 571v308q115 -90 236 -91q119 0 244 91q29 -90 28 -152 v-31q-2 -10 -2 -18v-12q-4 -39 -10 -70t-12 -53q-127 117 -258 116q-120 0 -226 -88zM743 926v278q340 -49 463 -280q-100 -94 -229 -95q-121 1 -234 97z" />
<glyph unicode="&#xd3;" horiz-adv-x="1497" d="M47 588q0 -256 166 -430q170 -176 420 -176q236 0 473 198q223 186 307 418q35 98 35 178q0 240 -188 410q-162 145 -418 198q-33 8 -39 9l-666 -400v-2q-90 -227 -90 -403zM205 705q-1 243 198 393v-539q0 -92 -8 -123q-16 -59 -61 -104q-129 180 -129 373zM365 297 q137 106 172 160q57 82 57 231v526q27 0 52 -1t52 -3v-1077q-193 23 -333 164zM551 1516l321 67l72 178h-178zM743 135v373q92 106 226 106q139 0 241 -120q-53 -158 -176 -256q-133 -105 -291 -103zM743 571v308q115 -90 236 -91q119 0 244 91q29 -90 28 -152v-31 q-2 -10 -2 -18v-12q-4 -39 -10 -70t-12 -53q-127 117 -258 116q-120 0 -226 -88zM743 926v278q340 -49 463 -280q-100 -94 -229 -95q-121 1 -234 97z" />
<glyph unicode="&#xd4;" horiz-adv-x="1497" d="M47 588q0 -256 166 -430q170 -176 420 -176q236 0 473 198q223 186 307 418q35 98 35 178q0 240 -188 410q-162 145 -418 198q-33 8 -39 9l-666 -400v-2q-90 -227 -90 -403zM205 705q-1 243 198 393v-539q0 -92 -8 -123q-16 -59 -61 -104q-129 180 -129 373zM365 297 q137 106 172 160q57 82 57 231v526q27 0 52 -1t52 -3v-1077q-193 23 -333 164zM432 1479l45 -25l160 162l299 -162l129 133l-340 195zM743 135v373q92 106 226 106q139 0 241 -120q-53 -158 -176 -256q-133 -105 -291 -103zM743 571v308q115 -90 236 -91q119 0 244 91 q29 -90 28 -152v-31q-2 -10 -2 -18v-12q-4 -39 -10 -70t-12 -53q-127 117 -258 116q-120 0 -226 -88zM743 926v278q340 -49 463 -280q-100 -94 -229 -95q-121 1 -234 97z" />
<glyph unicode="&#xd5;" horiz-adv-x="1497" d="M47 588q0 -256 166 -430q170 -176 420 -176q236 0 473 198q223 186 307 418q35 98 35 178q0 240 -188 410q-162 145 -418 198q-33 8 -39 9l-666 -400v-2q-90 -227 -90 -403zM205 705q-1 243 198 393v-539q0 -92 -8 -123q-16 -59 -61 -104q-129 180 -129 373zM365 297 q137 106 172 160q57 82 57 231v526q27 0 52 -1t52 -3v-1077q-193 23 -333 164zM399 1559l43 -31l101 80l270 -156l285 248l-43 33l-135 -119l-273 153zM743 135v373q92 106 226 106q139 0 241 -120q-53 -158 -176 -256q-133 -105 -291 -103zM743 571v308q115 -90 236 -91 q119 0 244 91q29 -90 28 -152v-31q-2 -10 -2 -18v-12q-4 -39 -10 -70t-12 -53q-127 117 -258 116q-120 0 -226 -88zM743 926v278q340 -49 463 -280q-100 -94 -229 -95q-121 1 -234 97z" />
<glyph unicode="&#xd6;" horiz-adv-x="1497" d="M47 588q0 -256 166 -430q170 -176 420 -176q236 0 473 198q223 186 307 418q35 98 35 178q0 240 -188 410q-162 145 -418 198q-33 8 -39 9l-666 -400v-2q-90 -227 -90 -403zM205 705q-1 243 198 393v-539q0 -92 -8 -123q-16 -59 -61 -104q-129 180 -129 373zM365 297 q137 106 172 160q57 82 57 231v526q27 0 52 -1t52 -3v-1077q-193 23 -333 164zM457 1610l129 -129l127 129l-127 129zM743 135v373q92 106 226 106q139 0 241 -120q-53 -158 -176 -256q-133 -105 -291 -103zM743 571v308q115 -90 236 -91q119 0 244 91q29 -90 28 -152v-31 q-2 -10 -2 -18v-12q-4 -39 -10 -70t-12 -53q-127 117 -258 116q-120 0 -226 -88zM743 926v278q340 -49 463 -280q-100 -94 -229 -95q-121 1 -234 97zM836 1610l129 -129l127 129l-127 129z" />
<glyph unicode="&#xd7;" d="M137 414l76 -76l297 295l283 -285l79 80l-284 285l297 297l-76 75l-297 -297l-283 283l-79 -80l282 -282z" />
<glyph unicode="&#xd8;" horiz-adv-x="1501" d="M47 588q0 -242 160 -426l-146 -178l66 -37l137 164q180 -129 354 -129q244 0 498 206q242 199 316 441q23 78 22 147q0 279 -268 475l137 172l-63 37l-138 -170q-143 72 -317 103l-668 -402v-2q-90 -240 -90 -401zM205 713q-1 233 198 387v-559q0 -152 -71 -207 q-127 182 -127 379zM367 297q20 14 39.5 30.5t37.5 32.5q109 102 140 177q14 49 14 120v560q63 -5 98 -7v-1077q-68 0 -174 53q-104 53 -155 111zM748 133v375q100 106 225 106q133 0 241 -122q-63 -158 -178 -254q-128 -109 -288 -105zM748 571v306q133 -88 231 -89 q123 0 248 89q31 -86 28 -181q-2 -29 -8 -66.5t-20 -86.5q-117 117 -256 116q-108 0 -223 -88zM748 928v274q129 -8 264 -88q139 -80 196 -192q-102 -92 -231 -93q-106 1 -229 99z" />
<glyph unicode="&#xd9;" horiz-adv-x="1507" d="M0 1038q0 -10 2 -14l41 -2q0 227 160 227h30t31 -2q78 -8 123 -12t62 -4h32q27 4 43.5 5t22.5 3q-238 -158 -338 -285q-137 -174 -137 -409q0 -231 147 -393q152 -170 377 -170q131 0 235 34q150 51 320 201q2 -94 33 -154q33 -63 110 -106l205 170l-26 37 q-29 -18 -56 -19q-29 0 -41 23q-20 35 -20 106v721q0 170 67 254q18 20 32.5 35.5t25.5 26.5l-37 30l-96 -100l-193 143l-227 -237l30 -31l107 109l90 -72v-291q-51 -33 -131 -41h-29q-94 10 -161 66v528l-29 -2q-25 -31 -60 -47q-55 -27 -133 -27q-61 0 -192 43 q-135 43 -189 41q-115 -6 -165 -92q-66 -115 -66 -278v-15zM266 641q0 205 123 375q115 154 305 254q-53 -68 -86 -111t-43 -59q-59 -100 -59 -207v-365q0 -198 -96 -270v-2q-143 156 -144 385zM453 217q100 59 180 145q72 78 72 211v504q-1 136 83 226v-1170h-26 q-4 -2 -12 -2h-27h-12q-154 8 -258 86zM555 1761l72 -178l321 -67l-215 245h-178zM834 141v412q76 47 149 47q76 0 172 -49v-260q-169 -134 -321 -150zM834 608v221q61 -41 131 -49q6 -2 16 -2h12q96 0 162 35v-213q-84 45 -172 45q-61 0 -149 -37z" />
<glyph unicode="&#xda;" horiz-adv-x="1507" d="M0 1038q0 -10 2 -14l41 -2q0 227 160 227h30t31 -2q78 -8 123 -12t62 -4h32q27 4 43.5 5t22.5 3q-238 -158 -338 -285q-137 -174 -137 -409q0 -231 147 -393q152 -170 377 -170q131 0 235 34q150 51 320 201q2 -94 33 -154q33 -63 110 -106l205 170l-26 37 q-29 -18 -56 -19q-29 0 -41 23q-20 35 -20 106v721q0 170 67 254q18 20 32.5 35.5t25.5 26.5l-37 30l-96 -100l-193 143l-227 -237l30 -31l107 109l90 -72v-291q-51 -33 -131 -41h-29q-94 10 -161 66v528l-29 -2q-25 -31 -60 -47q-55 -27 -133 -27q-61 0 -192 43 q-135 43 -189 41q-115 -6 -165 -92q-66 -115 -66 -278v-15zM266 641q0 205 123 375q115 154 305 254q-53 -68 -86 -111t-43 -59q-59 -100 -59 -207v-365q0 -198 -96 -270v-2q-143 156 -144 385zM453 217q100 59 180 145q72 78 72 211v504q-1 136 83 226v-1170h-26 q-4 -2 -12 -2h-27h-12q-154 8 -258 86zM555 1516l322 67l71 178h-178zM834 141v412q76 47 149 47q76 0 172 -49v-260q-169 -134 -321 -150zM834 608v221q61 -41 131 -49q6 -2 16 -2h12q96 0 162 35v-213q-84 45 -172 45q-61 0 -149 -37z" />
<glyph unicode="&#xdb;" horiz-adv-x="1507" d="M0 1038q0 -10 2 -14l41 -2q0 227 160 227h30t31 -2q78 -8 123 -12t62 -4h32q27 4 43.5 5t22.5 3q-238 -158 -338 -285q-137 -174 -137 -409q0 -231 147 -393q152 -170 377 -170q131 0 235 34q150 51 320 201q2 -94 33 -154q33 -63 110 -106l205 170l-26 37 q-29 -18 -56 -19q-29 0 -41 23q-20 35 -20 106v721q0 170 67 254q18 20 32.5 35.5t25.5 26.5l-37 30l-96 -100l-193 143l-227 -237l30 -31l107 109l90 -72v-291q-51 -33 -131 -41h-29q-94 10 -161 66v528l-29 -2q-25 -31 -60 -47q-55 -27 -133 -27q-61 0 -192 43 q-135 43 -189 41q-115 -6 -165 -92q-66 -115 -66 -278v-15zM266 641q0 205 123 375q115 154 305 254q-53 -68 -86 -111t-43 -59q-59 -100 -59 -207v-365q0 -198 -96 -270v-2q-143 156 -144 385zM436 1479l45 -25l160 162l299 -162l129 133l-340 195zM453 217q100 59 180 145 q72 78 72 211v504q-1 136 83 226v-1170h-26q-4 -2 -12 -2h-27h-12q-154 8 -258 86zM834 141v412q76 47 149 47q76 0 172 -49v-260q-169 -134 -321 -150zM834 608v221q61 -41 131 -49q6 -2 16 -2h12q96 0 162 35v-213q-84 45 -172 45q-61 0 -149 -37z" />
<glyph unicode="&#xdc;" horiz-adv-x="1507" d="M0 1038q0 -10 2 -14l41 -2q0 227 160 227h30t31 -2q78 -8 123 -12t62 -4h32q27 4 43.5 5t22.5 3q-238 -158 -338 -285q-137 -174 -137 -409q0 -231 147 -393q152 -170 377 -170q131 0 235 34q150 51 320 201q2 -94 33 -154q33 -63 110 -106l205 170l-26 37 q-29 -18 -56 -19q-29 0 -41 23q-20 35 -20 106v721q0 170 67 254q18 20 32.5 35.5t25.5 26.5l-37 30l-96 -100l-193 143l-227 -237l30 -31l107 109l90 -72v-291q-51 -33 -131 -41h-29q-94 10 -161 66v528l-29 -2q-25 -31 -60 -47q-55 -27 -133 -27q-61 0 -192 43 q-135 43 -189 41q-115 -6 -165 -92q-66 -115 -66 -278v-15zM266 641q0 205 123 375q115 154 305 254q-53 -68 -86 -111t-43 -59q-59 -100 -59 -207v-365q0 -198 -96 -270v-2q-143 156 -144 385zM453 217q100 59 180 145q72 78 72 211v504q-1 136 83 226v-1170h-26 q-4 -2 -12 -2h-27h-12q-154 8 -258 86zM485 1610l129 -129l127 129l-127 129zM834 141v412q76 47 149 47q76 0 172 -49v-260q-169 -134 -321 -150zM834 608v221q61 -41 131 -49q6 -2 16 -2h12q96 0 162 35v-213q-84 45 -172 45q-61 0 -149 -37zM864 1610l129 -129l127 129 l-127 129z" />
<glyph unicode="&#xdd;" horiz-adv-x="1374" d="M0 -8q0 -121 100 -201q98 -72 219 -70q104 4 278.5 98.5t238.5 94.5h8q4 0 6 -2q29 -4 29 -25q0 -18 -9 -20q-27 -41 -26 -74q0 -39 24.5 -65.5t63.5 -26.5q90 0 90 100q0 84 -90 138q-74 43 -168 43t-268 -68q-176 -68 -258 -68q-78 0 -134.5 48.5t-56.5 121.5 q0 82 64 131q96 72 213 72q35 0 87 -1t123.5 -3t122.5 -2h88q582 0 582 647v6v6q-2 180 -108 314q-115 141 -291 141q-98 0 -215 -53q-29 -12 -78 -40t-119 -69q-41 225 -272 226q-109 0 -205 -78l22 -33v-2q39 23 74 22q162 0 187 -221q2 -18 3 -42.5t1 -55.5v-76 q-88 63 -179 64q-43 0 -104 -29l8 -35h8q6 0 9 2h14q123 0 188 -92q53 -80 56 -211v-6v-6q-102 78 -201 78h-19q-8 0 -18 -2l-37 -4v-29q137 -12 209 -123q61 -92 66 -242v-2v-4q-135 0 -226 -69q-102 -78 -100 -203zM498 1516l321 67l72 178h-178zM516 266v840l92 55v-895 h-92zM653 266v289q109 84 203 84q131 0 246 -96q-93 -281 -449 -277zM653 610v279q96 -82 226 -82q113 0 233 92q14 -51 14 -160q0 -68 -14 -145q-113 90 -250 90q-103 0 -209 -74zM653 950v232q80 39 148 39q111 0 194 -84q74 -76 103 -189q-96 -98 -226 -98 q-110 0 -219 100z" />
<glyph unicode="&#xdf;" horiz-adv-x="880" d="M66 94q90 -39 163 -119l174 138l-75 82v985q82 -76 155.5 -135.5t139.5 -106.5l-281 -320l23 -26q84 47 141 47q63 0 102 -48t39 -112q0 -113 -125 -252q-2 -6 -10 -14l-12 -12q-100 -119 -101 -201q0 -31 13.5 -58.5t36 -49t51 -34t59.5 -12.5h10q6 0 9 2q49 6 49 43 q0 29 -37 29q-10 -2 -23 -6l-2 -2h-4q-18 -6 -29 -6q-80 0 -79 90q0 84 145 194q23 14 38 25.5t26 20.5q209 150 208 292v4v3q-4 104 -71 178q-68 80 -166 80q-20 0 -42 -1t-44 -4l250 285l-13 19h-12q-2 -2 -6 -2h-8q-27 0 -56 16q-55 33 -92 70l-207 170q-23 -16 -50 -37 t-58 -43q-57 -35 -98 -63.5t-68 -51.5v-877q0 -111 -63 -135v-45z" />
<glyph unicode="&#xe0;" horiz-adv-x="835" d="M68 229q0 -133 157 -254l271 218q12 -106 75 -177q14 -14 25.5 -23t19.5 -18l218 170l-21 25q-4 -4 -8 -4l-2 -2l-4 -4q-37 -16 -49 -17q-49 6 -52 80v17v405v53q0 25 2 47q2 96 72 203l-27 17q-47 -45 -92 -45q-102 0 -256 79q-8 4 -12 6.5t-8 4.5q-102 -86 -250 -86 h-23q-2 0 -4 2h-10q-6 0 -6 2l176 -316l-29 -32q-164 -182 -163 -351zM150 891l346 -115v-244l-195 84zM227 1419l72 -178l322 -67l-215 245h-179zM238 358q0 61 24 164q14 61 21 62l102 -45l111 -47v-248l-131 -109q-127 117 -127 223z" />
<glyph unicode="&#xe1;" horiz-adv-x="835" d="M68 229q0 -133 157 -254l271 218q12 -106 75 -177q14 -14 25.5 -23t19.5 -18l218 170l-21 25q-4 -4 -8 -4l-2 -2l-4 -4q-37 -16 -49 -17q-49 6 -52 80v17v405v53q0 25 2 47q2 96 72 203l-27 17q-47 -45 -92 -45q-102 0 -256 79q-8 4 -12 6.5t-8 4.5q-102 -86 -250 -86 h-23q-2 0 -4 2h-10q-6 0 -6 2l176 -316l-29 -32q-164 -182 -163 -351zM150 891l346 -115v-244l-195 84zM227 1174l322 67l72 178h-179zM238 358q0 61 24 164q14 61 21 62l102 -45l111 -47v-248l-131 -109q-127 117 -127 223z" />
<glyph unicode="&#xe2;" horiz-adv-x="835" d="M68 229q0 -133 157 -254l271 218q12 -106 75 -177q14 -14 25.5 -23t19.5 -18l218 170l-21 25q-4 -4 -8 -4l-2 -2l-4 -4q-37 -16 -49 -17q-49 6 -52 80v17v405v53q0 25 2 47q2 96 72 203l-27 17q-47 -45 -92 -45q-102 0 -256 79q-8 4 -12 6.5t-8 4.5q-102 -86 -250 -86 h-23q-2 0 -4 2h-10q-6 0 -6 2l176 -316l-29 -32q-164 -182 -163 -351zM109 1159l45 -24l159 161l299 -161l129 133l-340 194zM150 891l346 -115v-244l-195 84zM238 358q0 61 24 164q14 61 21 62l102 -45l111 -47v-248l-131 -109q-127 117 -127 223z" />
<glyph unicode="&#xe3;" horiz-adv-x="835" d="M68 229q0 -133 157 -254l271 218q12 -106 75 -177q14 -14 25.5 -23t19.5 -18l218 170l-21 25q-4 -4 -8 -4l-2 -2l-4 -4q-37 -16 -49 -17q-49 6 -52 80v17v405v53q0 25 2 47q2 96 72 203l-27 17q-47 -45 -92 -45q-102 0 -256 79q-8 4 -12 6.5t-8 4.5q-102 -86 -250 -86 h-23q-2 0 -4 2h-10q-6 0 -6 2l176 -316l-29 -32q-164 -182 -163 -351zM76 1243l43 -31l100 80l270 -155l285 247l-43 33l-135 -119l-272 154zM150 891l346 -115v-244l-195 84zM238 358q0 61 24 164q14 61 21 62l102 -45l111 -47v-248l-131 -109q-127 117 -127 223z" />
<glyph unicode="&#xe4;" horiz-adv-x="835" d="M68 229q0 -133 157 -254l271 218q12 -106 75 -177q14 -14 25.5 -23t19.5 -18l218 170l-21 25q-4 -4 -8 -4l-2 -2l-4 -4q-37 -16 -49 -17q-49 6 -52 80v17v405v53q0 25 2 47q2 96 72 203l-27 17q-47 -45 -92 -45q-102 0 -256 79q-8 4 -12 6.5t-8 4.5q-102 -86 -250 -86 h-23q-2 0 -4 2h-10q-6 0 -6 2l176 -316l-29 -32q-164 -182 -163 -351zM139 1294l129 -129l127 129l-127 129zM150 891l346 -115v-244l-195 84zM238 358q0 61 24 164q14 61 21 62l102 -45l111 -47v-248l-131 -109q-127 117 -127 223zM518 1294l129 -129l127 129l-127 129z " />
<glyph unicode="&#xe5;" horiz-adv-x="835" d="M68 229q0 -133 157 -254l271 218q12 -106 75 -177q14 -14 25.5 -23t19.5 -18l218 170l-21 25q-4 -4 -8 -4l-2 -2l-4 -4q-37 -16 -49 -17q-49 6 -52 80v17v405v53q0 25 2 47q2 96 72 203l-27 17q-47 -45 -92 -45q-102 0 -256 79q-8 4 -12 6.5t-8 4.5q-102 -86 -250 -86 h-23q-2 0 -4 2h-10q-6 0 -6 2l176 -316l-29 -32q-164 -182 -163 -351zM150 891l346 -115v-244l-195 84zM238 358q0 61 24 164q14 61 21 62l102 -45l111 -47v-248l-131 -109q-127 117 -127 223zM295 1290q0 -158 190 -215v-2q55 0 123 90q68 88 68 150q0 156 -191 215l-8 -4 q-182 -92 -182 -234zM371 1331q0 10 4 27q12 51 45 84q59 0 118.5 -59.5t59.5 -120.5q0 -62 -51 -101v-2q-27 6 -35 12q-141 57 -141 160z" />
<glyph unicode="&#xe6;" horiz-adv-x="1067" d="M61 240q0 -158 168 -265l254 113v-2q145 -39 254 -111l293 205l-18 29l-148 -107q-84 63 -174 95v194l363 311l-256 318l-172 -102q-115 8 -265 92q-94 -94 -213 -95h-34q-10 4 -19.5 5.5t-15.5 3.5l172 -320q-188 -188 -189 -364zM141 881l348 -111v-321l-196 163z M227 367v18q0 92 52 193l210 -181v-256l-110 -49q-152 117 -152 275zM690 455v426l197 -254z" />
<glyph unicode="&#xe7;" horiz-adv-x="628" d="M63 782q80 0 80 -98v-418q0 -117 -57 -153v-27q133 -18 272 -86l-225 -180q35 0 82 -62q47 -66 47 -102q0 -39 -35 -96q0 -4 -4 -9l13 -10q145 72 145 191q0 57 -94 151l342 279l-21 28l-88 -69l-176 80v622l170 -96l102 152l-237 129q-160 -152 -316 -197v-29z" />
<glyph unicode="&#xe8;" horiz-adv-x="729" d="M68 809l8 -23q68 0 67 -77v-422v-23q-4 -109 -67 -139v-23q139 -25 315 -127l297 201l-20 29l-146 -103q-68 37 -178 93v188l371 307l-250 320q-78 -47 -176.5 -97.5t-220.5 -103.5zM168 1419l72 -178l321 -67l-215 245h-178zM344 451v438l209 -268z" />
<glyph unicode="&#xe9;" horiz-adv-x="729" d="M68 809l8 -23q68 0 67 -77v-422v-23q-4 -109 -67 -139v-23q139 -25 315 -127l297 201l-20 29l-146 -103q-68 37 -178 93v188l371 307l-250 320q-78 -47 -176.5 -97.5t-220.5 -103.5zM168 1174l321 67l72 178h-178zM344 451v438l209 -268z" />
<glyph unicode="&#xea;" horiz-adv-x="733" d="M49 1159l45 -24l160 161l299 -161l129 133l-340 194zM68 809l8 -23q68 0 67 -77v-422v-23q-4 -109 -67 -139v-23q139 -25 315 -127l297 201l-20 29l-146 -103q-68 37 -178 93v188l371 307l-250 320q-78 -47 -176.5 -97.5t-220.5 -103.5zM344 451v438l209 -268z" />
<glyph unicode="&#xeb;" horiz-adv-x="729" d="M47 1294l129 -129l127 129l-127 129zM68 809l8 -23q68 0 67 -77v-422v-23q-4 -109 -67 -139v-23q139 -25 315 -127l297 201l-20 29l-146 -103q-68 37 -178 93v188l371 307l-250 320q-78 -47 -176.5 -97.5t-220.5 -103.5zM344 451v438l209 -268zM426 1294l129 -129 l127 129l-127 129z" />
<glyph unicode="&#xec;" horiz-adv-x="499" d="M53 1419l72 -178l321 -67l-215 245h-178zM72 879l71 -62v-524q0 -111 -65 -133v-21q45 -27 93 -67.5t101 -96.5l213 166l-24 35l-62 -51l-57 51v633l70 63l-170 140z" />
<glyph unicode="&#xed;" horiz-adv-x="499" d="M53 1174l322 67l71 178h-178zM72 879l71 -62v-524q0 -111 -65 -133v-21q45 -27 93 -67.5t101 -96.5l213 166l-24 35l-62 -51l-57 51v633l70 63l-170 140z" />
<glyph unicode="&#xee;" horiz-adv-x="499" d="M-66 1159l46 -24l157 161l299 -161l129 133l-340 194zM72 879l71 -62v-524q0 -111 -65 -133v-21q45 -27 93 -67.5t101 -96.5l213 166l-24 35l-62 -51l-57 51v633l70 63l-170 140z" />
<glyph unicode="&#xef;" horiz-adv-x="499" d="M-66 1294l127 -129l127 129l-127 129zM72 879l71 -62v-524q0 -111 -65 -133v-21q45 -27 93 -67.5t101 -96.5l213 166l-24 35l-62 -51l-57 51v633l70 63l-170 140zM311 1294l129 -129l127 129l-127 129z" />
<glyph unicode="&#xf1;" horiz-adv-x="909" d="M25 858l24 -33q29 20 51 21q43 0 45 -70v-6v-33q-2 -2 -2 -8v-532l-80 -74l175 -148l176 144l-70 74v561l141 116l80 -82v-514q0 -154 51 -225q23 -27 40.5 -45t31.5 -29l215 172l-24 39q-16 -12 -17 -12v-2q-29 -23 -47 -22q-49 0 -49 98v407q0 133 39 193 q20 27 36.5 45t28.5 31l-28 32l-97 -92l-147 148l-254 -211q0 72 -29 119q-20 33 -88 92zM106 1243l44 -31l100 80l270 -155l285 247l-43 33l-135 -119l-273 154z" />
<glyph unicode="&#xf2;" horiz-adv-x="796" d="M45 127q193 -16 373 -152q29 23 65.5 44.5t77.5 43.5q23 12 62 30.5t92 41.5v727q-176 47 -324 148q-129 -117 -289 -166v-467q0 -31 -2 -68t-6 -82q-4 -41 -49 -73v-27zM201 1419l71 -178l322 -67l-215 245h-178zM301 231v621l213 -92v-621z" />
<glyph unicode="&#xf3;" horiz-adv-x="796" d="M45 127q193 -16 373 -152q29 23 65.5 44.5t77.5 43.5q23 12 62 30.5t92 41.5v727q-176 47 -324 148q-129 -117 -289 -166v-467q0 -31 -2 -68t-6 -82q-4 -41 -49 -73v-27zM201 1174l321 67l72 178h-178zM301 231v621l213 -92v-621z" />
<glyph unicode="&#xf4;" horiz-adv-x="796" d="M45 127q193 -16 373 -152q29 23 65.5 44.5t77.5 43.5q23 12 62 30.5t92 41.5v727q-176 47 -324 148q-129 -117 -289 -166v-467q0 -31 -2 -68t-6 -82q-4 -41 -49 -73v-27zM82 1159l45 -24l160 161l299 -161l129 133l-340 194zM301 231v621l213 -92v-621z" />
<glyph unicode="&#xf5;" horiz-adv-x="796" d="M45 127q193 -16 373 -152q29 23 65.5 44.5t77.5 43.5q23 12 62 30.5t92 41.5v727q-176 47 -324 148q-129 -117 -289 -166v-467q0 -31 -2 -68t-6 -82q-4 -41 -49 -73v-27zM49 1243l43 -31l101 80l270 -155l285 247l-43 33l-136 -119l-272 154zM301 231v621l213 -92v-621z " />
<glyph unicode="&#xf6;" horiz-adv-x="796" d="M45 127q193 -16 373 -152q29 23 65.5 44.5t77.5 43.5q23 12 62 30.5t92 41.5v727q-176 47 -324 148q-129 -117 -289 -166v-467q0 -31 -2 -68t-6 -82q-4 -41 -49 -73v-27zM63 1294l130 -129l126 129l-126 129zM301 231v621l213 -92v-621zM442 1294l129 -129l127 129 l-127 129z" />
<glyph unicode="&#xf7;" horiz-adv-x="1366" d="M152 682l532 -733l530 733l-530 737zM281 682l403 555l403 -555l-403 -553z" />
<glyph unicode="&#xf8;" horiz-adv-x="786" d="M-27 4q0 -72 70 -72q66 0 66 66q-4 8 -7.5 16.5t-7.5 16.5q-14 49 -14 55q0 29 35 29h2h2q25 0 61 -11q104 -47 154 -73q63 -35 84 -56q88 76 235 138q53 20 58 24v697l151 178l-61 35l-146 -168v-2q-59 18 -124.5 52t-141.5 81q-104 -104 -285 -166v-518 q0 -117 -67 -185l-14 -14q-49 -55 -50 -123zM301 233v127l211 246v-465zM301 467v383l211 -92v-45z" />
<glyph unicode="&#xf9;" horiz-adv-x="919" d="M33 827l26 -32l41 32l43 -32v-541q0 -76 -57 -96v-29q96 -39 223 -154l269 242q0 -76 18 -121q27 -70 106 -121l205 156l-30 33q-20 -20 -48 -21q-53 0 -53 93v567l68 59l-172 150l-166 -150l72 -59v-531l-144 -131l-90 72v590l68 59l-170 150zM264 1419l72 -178l321 -67 l-215 245h-178z" />
<glyph unicode="&#xfa;" horiz-adv-x="919" d="M33 827l26 -32l41 32l43 -32v-541q0 -76 -57 -96v-29q96 -39 223 -154l269 242q0 -76 18 -121q27 -70 106 -121l205 156l-30 33q-20 -20 -48 -21q-53 0 -53 93v567l68 59l-172 150l-166 -150l72 -59v-531l-144 -131l-90 72v590l68 59l-170 150zM264 1174l322 67l71 178 h-178z" />
<glyph unicode="&#xfb;" horiz-adv-x="919" d="M33 827l26 -32l41 32l43 -32v-541q0 -76 -57 -96v-29q96 -39 223 -154l269 242q0 -76 18 -121q27 -70 106 -121l205 156l-30 33q-20 -20 -48 -21q-53 0 -53 93v567l68 59l-172 150l-166 -150l72 -59v-531l-144 -131l-90 72v590l68 59l-170 150zM143 1159l45 -24l160 161 l299 -161l129 133l-340 194z" />
<glyph unicode="&#xfc;" horiz-adv-x="919" d="M33 827l26 -32l41 32l43 -32v-541q0 -76 -57 -96v-29q96 -39 223 -154l269 242q0 -76 18 -121q27 -70 106 -121l205 156l-30 33q-20 -20 -48 -21q-53 0 -53 93v567l68 59l-172 150l-166 -150l72 -59v-531l-144 -131l-90 72v590l68 59l-170 150zM154 1294l129 -129 l127 129l-127 129zM532 1294l130 -129l126 129l-126 129z" />
<glyph unicode="&#xfd;" horiz-adv-x="782" d="M8 838l27 -31l4 4l2 2q2 0 4 2q31 25 51 25q45 0 49 -74v-6v-33q-2 -2 -2 -8v-502q0 -96 -65.5 -192.5t-65.5 -153.5q0 -84 62 -127q51 -39 141 -39q49 0 115 12q137 27 137 88q0 43 -41 43q-35 0 -86 -51q-59 -49 -129 -49q-61 0 -104.5 32t-43.5 89q0 55 41 96 q53 41 94.5 67.5t69.5 43.5q119 72 201 129t129 104q164 160 164 355v18q0 10 -2 16q-12 102 -37 164q-33 76 -94 142l-281 -226q0 137 -94 205q-16 10 -24.5 17.5t-12.5 9.5zM195 1174l321 67l72 178h-178zM346 178v549l139 109q78 -113 78 -250v-13v-12 q-8 -111 -66.5 -216t-150.5 -167z" />
<glyph unicode="&#xff;" horiz-adv-x="782" d="M8 838l27 -31l4 4l2 2q2 0 4 2q31 25 51 25q45 0 49 -74v-6v-33q-2 -2 -2 -8v-502q0 -96 -65.5 -192.5t-65.5 -153.5q0 -84 62 -127q51 -39 141 -39q49 0 115 12q137 27 137 88q0 43 -41 43q-35 0 -86 -51q-59 -49 -129 -49q-61 0 -104.5 32t-43.5 89q0 55 41 96 q53 41 94.5 67.5t69.5 43.5q119 72 201 129t129 104q164 160 164 355v18q0 10 -2 16q-12 102 -37 164q-33 76 -94 142l-281 -226q0 137 -94 205q-16 10 -24.5 17.5t-12.5 9.5zM74 1292l129 -129l127 129l-127 129zM346 178v549l139 109q78 -113 78 -250v-13v-12 q-8 -111 -66.5 -216t-150.5 -167zM453 1292l129 -129l127 129l-127 129z" />
<glyph unicode="&#x152;" horiz-adv-x="2191" d="M47 584q0 -254 166 -426q168 -172 420 -172q268 0 592 313l12 12q6 6 10 13v-242q-14 -10 -26.5 -21.5t-24.5 -21.5l-51 -45l24 -25q164 94 344 94q162 0 304 -57q20 -4 45.5 -16.5t58.5 -28.5l256 236l-25 28l-92 -88q-152 96 -258 96q-115 0 -233 -43v496 q98 -61 182 -61q213 0 309 194l-28 25q-72 -63 -148 -64q-115 0 -203 92l-112 -90v430l73 48q106 -125 238 -125h12h9q188 16 262 161l-23 21q-59 -31 -117 -31q-162 0 -249 123l-344 -240q-47 -30 -113 -55v-2q-129 176 -402 240q-74 14 -110 24l-668 -397 q-90 -221 -90 -395zM205 698q-1 240 198 387v-530q0 -90 -8 -121q-16 -59 -61 -102q-129 178 -129 366zM365 297l65 49q47 37 79 71t50.5 72.5t26.5 85t8 107.5v520h27q12 0 26 -2l51 -4v-1061q-195 20 -333 162zM743 137v367q92 106 226 106q139 0 241 -121 q-53 -154 -178 -251q-135 -103 -289 -101zM743 567v303q115 -90 236 -90q119 0 244 90q29 -76 28 -149q0 -94 -24 -182q-127 115 -258 114q-122 0 -226 -86zM743 918v272q55 -6 74 -14q281 -70 389 -261q-100 -94 -229 -94q-121 1 -234 97zM1446 131v997l82 56v-1012 q-29 -14 -48.5 -23.5t-33.5 -17.5z" />
<glyph unicode="&#x153;" horiz-adv-x="1099" d="M45 127q195 -16 373 -152q51 33 87.5 56t63.5 39v-2q53 -23 91 -41.5t63 -30.5q37 -20 37 -21l299 205l-21 31l-145 -102q-59 29 -104.5 51t-73.5 39v192l370 316l-249 325q-123 -78 -244 -133q-90 35 -201 111q-129 -117 -289 -166v-504q0 -10 -2 -39t-6 -74 q-4 -41 -49 -73v-27zM301 231v621l213 -92v-504v-8q-2 -4 -2 -10q-12 -63 -33 -84zM715 461v446l207 -272z" />
<glyph unicode="&#x178;" horiz-adv-x="1374" d="M0 -8q0 -121 100 -201q98 -72 219 -70q104 4 278.5 98.5t238.5 94.5h8q4 0 6 -2q29 -4 29 -25q0 -18 -9 -20q-27 -41 -26 -74q0 -39 24.5 -65.5t63.5 -26.5q90 0 90 100q0 84 -90 138q-74 43 -168 43t-268 -68q-176 -68 -258 -68q-78 0 -134.5 48.5t-56.5 121.5 q0 82 64 131q96 72 213 72q35 0 87 -1t123.5 -3t122.5 -2h88q582 0 582 647v6v6q-2 180 -108 314q-115 141 -291 141q-98 0 -215 -53q-29 -12 -78 -40t-119 -69q-41 225 -272 226q-109 0 -205 -78l22 -33v-2q39 23 74 22q162 0 187 -221q2 -18 3 -42.5t1 -55.5v-76 q-88 63 -179 64q-43 0 -104 -29l8 -35h8q6 0 9 2h14q123 0 188 -92q53 -80 56 -211v-6v-6q-102 78 -201 78h-19q-8 0 -18 -2l-37 -4v-29q137 -12 209 -123q61 -92 66 -242v-2v-4q-135 0 -226 -69q-102 -78 -100 -203zM377 1610l129 -129l127 129l-127 129zM516 266v840 l92 55v-895h-92zM653 266v289q109 84 203 84q131 0 246 -96q-93 -281 -449 -277zM653 610v279q96 -82 226 -82q113 0 233 92q14 -51 14 -160q0 -68 -14 -145q-113 90 -250 90q-103 0 -209 -74zM653 950v232q80 39 148 39q111 0 194 -84q74 -76 103 -189q-96 -98 -226 -98 q-110 0 -219 100zM756 1610l129 -129l127 129l-127 129z" />
<glyph unicode="&#x2c6;" d="M197 1159l45 -24l159 161l299 -161l129 133l-340 194z" />
<glyph unicode="&#x2dc;" d="M164 1243l43 -31l100 80l271 -155l284 247l-43 33l-135 -119l-272 154z" />
<glyph unicode="&#x2000;" horiz-adv-x="939" />
<glyph unicode="&#x2001;" horiz-adv-x="1878" />
<glyph unicode="&#x2002;" horiz-adv-x="939" />
<glyph unicode="&#x2003;" horiz-adv-x="1878" />
<glyph unicode="&#x2004;" horiz-adv-x="626" />
<glyph unicode="&#x2005;" horiz-adv-x="469" />
<glyph unicode="&#x2006;" horiz-adv-x="313" />
<glyph unicode="&#x2007;" horiz-adv-x="313" />
<glyph unicode="&#x2008;" horiz-adv-x="234" />
<glyph unicode="&#x2009;" horiz-adv-x="375" />
<glyph unicode="&#x200a;" horiz-adv-x="104" />
<glyph unicode="&#x2010;" horiz-adv-x="468" d="M20 436l353 -2q27 76 73 166h-352v-2q-39 -98 -74 -162z" />
<glyph unicode="&#x2011;" horiz-adv-x="468" d="M20 436l353 -2q27 76 73 166h-352v-2q-39 -98 -74 -162z" />
<glyph unicode="&#x2012;" horiz-adv-x="468" d="M20 436l353 -2q27 76 73 166h-352v-2q-39 -98 -74 -162z" />
<glyph unicode="&#x2013;" horiz-adv-x="909" d="M27 436h811q18 47 36.5 89t34.5 77l-809 -2v-2q-31 -86 -73 -162z" />
<glyph unicode="&#x2014;" horiz-adv-x="1177" d="M27 436l1052 -2q18 47 37 89t35 77h-1051v-2q-31 -86 -73 -162z" />
<glyph unicode="&#x2018;" d="M37 657h950v109h-950v-109zM418 342q0 -39 27.5 -66.5t66.5 -27.5t66.5 27.5t27.5 66.5t-27.5 65.5t-66.5 28.5v-2q-39 0 -66.5 -26.5t-27.5 -65.5zM420 1077q0 -37 27.5 -64.5t64.5 -27.5q39 0 66.5 26.5t27.5 65.5t-27.5 67t-66.5 30v-3q-39 0 -65.5 -27.5t-26.5 -66.5 z" />
<glyph unicode="&#x2019;" horiz-adv-x="397" d="M68 1008l16 -41q195 72 246 297l-133 129l-129 -136q6 -8 16 -18l6 -4q59 -63 60 -109q0 -47 -66 -106q-10 -10 -16 -12z" />
<glyph unicode="&#x201a;" horiz-adv-x="487" d="M70 117q6 -8 16 -19l6 -4q59 -63 60 -104q0 -47 -66 -107q-12 -12 -16 -14l16 -39q193 70 246 293l-133 129z" />
<glyph unicode="&#x201c;" horiz-adv-x="712" d="M70 1098l133 -129l129 131q-14 6 -29.5 21.5t-28 35t-19.5 38.5t-7 36q0 57 69 108l15 15l-17 37q-194 -78 -245 -293zM383 1098l133 -129l129 131l-16 16q-66 66 -66 115q0 51 72 112l10 11l-16 37q-195 -78 -246 -293z" />
<glyph unicode="&#x201d;" horiz-adv-x="712" d="M70 1008l16 -41q195 72 246 297l-133 129l-129 -136q6 -8 16 -18l6 -4q59 -63 60 -109q0 -47 -66 -106q-10 -10 -16 -12zM383 1008l16 -41q195 72 246 297l-133 129l-129 -136l16 -16q66 -66 66 -115q0 -51 -72 -112q-6 -6 -10 -6z" />
<glyph unicode="&#x201e;" horiz-adv-x="712" d="M70 117q6 -8 16 -19l6 -4q59 -63 60 -104q0 -47 -66 -107q-12 -12 -16 -14l16 -39q193 70 246 293l-133 129zM383 117l16 -17q66 -66 66 -110q0 -35 -23 -64l-34.5 -34.5t-24.5 -22.5l16 -39q193 70 246 293l-133 129z" />
<glyph unicode="&#x2022;" horiz-adv-x="1228" d="M406 584q0 -82 57 -139.5t139 -57.5q86 0 143.5 55.5t57.5 141.5t-57.5 141t-143.5 55q-82 0 -139 -56t-57 -138v-2z" />
<glyph unicode="&#x2026;" horiz-adv-x="1476" d="M98 121l148 -146l147 146l-147 147zM590 121l147 -146l150 146l-150 147zM1083 121l148 -146l147 146l-147 147z" />
<glyph unicode="&#x202f;" horiz-adv-x="375" />
<glyph unicode="&#x2039;" horiz-adv-x="585" d="M68 518l284 -399l117 117l-252 354l260 317l-57 51z" />
<glyph unicode="&#x203a;" horiz-adv-x="585" d="M109 170l55 -51l354 440l-287 399l-116 -116l254 -357z" />
<glyph unicode="&#x205f;" horiz-adv-x="469" />
<glyph unicode="&#x2122;" horiz-adv-x="2000" d="M-20 1118l30 -16q43 90 102.5 122.5t163.5 32.5q-84 -41 -143 -127q-80 -115 -80 -231q0 -158 119 -262q115 -102 272 -102q145 0 261 83q113 82 147 222l-33 6q-86 -149 -225 -180v546h20q2 -2 11 -2h10q88 0 147.5 47.5t67.5 133.5l-31 8q-43 -68 -129 -68 q-59 0 -190 22.5t-191 22.5q-268 0 -329 -258zM182 961v16t2 18l4 35q35 158 150 221v-407q0 -84 -45 -117q-111 98 -111 234zM332 702h4l49 37q57 43 77.5 84t20.5 115v295l68 -12v-564q-2 -2 -8 -2h-8q-6 -2 -17 -2h-20q-90 0 -166 49zM864 446q0 -8 2 -10l39 -2 q8 51 53 51h25q10 -2 25 -2q12 -2 24 -3t25 -1q197 0 196 215v221h142v-159q0 -49 -17 -66l-8 -8q-6 -6 -14 -8v-23q78 -51 139 -125l217 185l-31 28l-34 -28v207l77 98h-77v256l22 14l76 -57v-512q0 -59 8 -90q14 -59 86 -99l152 115l-31 33l-39 -31q-29 16 -29 66v428 q0 16 1 31.5t3 31.5q2 25 17 47q4 4 11 14.5t18 26.5q4 4 7 8.5l7 10.5l-33 24q-37 -33 -53 -47l-129 98l-207 -141l-2 2q-2 76 -88 129q-4 0 -8 4q-96 -55 -148 -80q-123 -63 -178 -131q-63 -80 -68 -206q-113 -18 -155 -103l33 -27l4 5q2 2 2 4q27 33 59 32q76 0 105 -104 q10 -31 10 -59q0 -55 -31 -82q-18 -18 -82 -35l-2 -2h-2q-61 -18 -88 -41q-31 -31 -31 -92v-11zM1110 588q47 31 59 78q10 35 11 100v297q0 92 41 139q-10 -51 -11 -110v-359q0 -78 -12 -102q-22 -41 -88 -41v-2zM1253 963v129q0 68 9 100q10 47 84 90q49 -29 49 -102v-164 h-103zM1536 727v12v176h68v-237q-8 -14 -27 -14q-39 0 -41 63zM1536 1016v180l68 47v-227h-68z" />
<glyph unicode="&#x25fc;" horiz-adv-x="1013" d="M0 0v1014h1014v-1014h-1014z" />
</font>
</defs>
</svg>
